<svg width="1024" height="1024" xmlns="http://www.w3.org/2000/svg" xmlns:xlink="http://www.w3.org/1999/xlink" onload="init()" id="dbb3DzLC3xSkYAehp"><script type="application/javascript"> <![CDATA[ 
function init(){}
 ]]> </script><g id="2CHmcMiuNKPASNcE8" type="layer"><title>2CHmcMiuNKPASNcE8</title><path d="M189.85028163541097,839.3941968329243 401.9215554391219,839.3941968329243 401.9215554391219,627.3229382880024 189.85028163541097,627.3229382880024 189.85028163541097,415.2517407782365 189.85028163541097,203.18039068058027 401.9215554391219,203.18039068058027 401.9215554391219,415.2517407782365 613.9928292428328,415.2517407782365 613.9928292428328,203.18039068058027 826.0640267525985,203.18039068058027 826.0640267525985,415.2517407782365 826.0640267525985,627.3229382880024 613.9928292428328,627.3229382880024 613.9928292428328,839.3941968329243 826.0640267525985,839.3941968329243" id="hW9vxNapfMfEsuX87" type="simple_path" name="undefined" stroke="#c83838" stroke-width="9" stroke-opacity="1" fill="#f4f4f4" fill-opacity="0" stroke-linejoin="miter" stroke-linecap="butt" opacity="1"/><path d="M104.8318099975586,911.3889770507812 158.08363342285156,911.3889770507812 158.08363342285156,858.13720703125 104.8318099975586,858.13720703125 104.8318099975586,804.8850708007812 104.8318099975586,751.6329956054688 158.08363342285156,751.6329956054688 158.08363342285156,804.8850708007812 211.33560180664062,804.8850708007812 211.33560180664062,751.6329956054688 264.58734130859375,751.6329956054688 264.58734130859375,804.8850708007812 264.58734130859375,858.13720703125 211.33560180664062,858.13720703125 211.33560180664062,911.3889770507812 264.58734130859375,911.3889770507812 317.8393859863281,911.3889770507812 317.8393859863281,858.13720703125 371.0911865234375,858.13720703125 371.0911865234375,911.3889770507812 424.3428649902344,911.3889770507812 477.59478759765625,911.3889770507812 477.59478759765625,858.13720703125 424.3428649902344,858.13720703125 424.3428649902344,804.8850708007812 477.59478759765625,804.8850708007812 477.59478759765625,751.6329956054688 424.3428649902344,751.6329956054688 371.0911865234375,751.6329956054688 371.0911865234375,804.8850708007812 317.8393859863281,804.8850708007812 317.8393859863281,751.6329956054688 317.8393859863281,698.3812255859375 317.8393859863281,645.1301879882812 371.0911865234375,645.1301879882812 371.0911865234375,698.3812255859375 424.3428649902344,698.3812255859375 477.59478759765625,698.3812255859375 477.59478759765625,645.1301879882812 424.3428649902344,645.1301879882812 424.3428649902344,591.8773193359375 477.59478759765625,591.8773193359375 477.59478759765625,538.6259765625 424.3428649902344,538.6259765625 371.0911865234375,538.6259765625 371.0911865234375,591.8773193359375 317.8393859863281,591.8773193359375 317.8393859863281,538.6259765625 264.58734130859375,538.6259765625 211.33560180664062,538.6259765625 211.33560180664062,591.8773193359375 264.58734130859375,591.8773193359375 264.58734130859375,645.1301879882812 264.58734130859375,698.3812255859375 211.33560180664062,698.3812255859375 211.33560180664062,645.1301879882812 158.08363342285156,645.1301879882812 158.08363342285156,698.3812255859375 104.8318099975586,698.3812255859375 104.8318099975586,645.1301879882812 104.8318099975586,591.8773193359375 158.08363342285156,591.8773193359375 158.08363342285156,538.6259765625 104.8318099975586,538.6259765625 104.8318099975586,485.3739013671875 104.8318099975586,432.1216735839844 158.08363342285156,432.1216735839844 158.08363342285156,485.3739013671875 211.33560180664062,485.3739013671875 264.58734130859375,485.3739013671875 264.58734130859375,432.1216735839844 211.33560180664062,432.1216735839844 211.33560180664062,378.87005615234375 264.58734130859375,378.87005615234375 264.58734130859375,325.6183776855469 211.33560180664062,325.6183776855469 158.08363342285156,325.6183776855469 158.08363342285156,378.87005615234375 104.8318099975586,378.87005615234375 104.8318099975586,325.6183776855469 104.8318099975586,272.3663330078125 158.08363342285156,272.3663330078125 158.08363342285156,219.11465454101562 104.8318099975586,219.11465454101562 104.8318099975586,165.86268615722656 104.8318099975586,112.610107421875 158.08363342285156,112.610107421875 158.08363342285156,165.86268615722656 211.33560180664062,165.86268615722656 211.33560180664062,112.610107421875 264.58734130859375,112.610107421875 264.58734130859375,165.86268615722656 264.58734130859375,219.11465454101562 211.33560180664062,219.11465454101562 211.33560180664062,272.3663330078125 264.58734130859375,272.3663330078125 317.8393859863281,272.3663330078125 371.0911865234375,272.3663330078125 371.0911865234375,219.11465454101562 317.8393859863281,219.11465454101562 317.8393859863281,165.86268615722656 317.8393859863281,112.610107421875 371.0911865234375,112.610107421875 371.0911865234375,165.86268615722656 424.3428649902344,165.86268615722656 424.3428649902344,112.610107421875 477.59478759765625,112.610107421875 477.59478759765625,165.86268615722656 477.59478759765625,219.11465454101562 424.3428649902344,219.11465454101562 424.3428649902344,272.3663330078125 477.59478759765625,272.3663330078125 477.59478759765625,325.6183776855469 477.59478759765625,378.87005615234375 424.3428649902344,378.87005615234375 424.3428649902344,325.6183776855469 371.0911865234375,325.6183776855469 317.8393859863281,325.6183776855469 317.8393859863281,378.87005615234375 371.0911865234375,378.87005615234375 371.0911865234375,432.1216735839844 317.8393859863281,432.1216735839844 317.8393859863281,485.3739013671875 371.0911865234375,485.3739013671875 424.3428649902344,485.3739013671875 424.3428649902344,432.1216735839844 477.59478759765625,432.1216735839844 477.59478759765625,485.3739013671875 530.8469848632812,485.3739013671875 530.8469848632812,432.1216735839844 584.0985107421875,432.1216735839844 584.0985107421875,485.3739013671875 637.3505249023438,485.3739013671875 690.6019287109375,485.3739013671875 690.6019287109375,432.1216735839844 637.3505249023438,432.1216735839844 637.3505249023438,378.87005615234375 690.6019287109375,378.87005615234375 690.6019287109375,325.6183776855469 637.3505249023438,325.6183776855469 584.0985107421875,325.6183776855469 584.0985107421875,378.87005615234375 530.8469848632812,378.87005615234375 530.8469848632812,325.6183776855469 530.8469848632812,272.3663330078125 584.0985107421875,272.3663330078125 584.0985107421875,219.11465454101562 530.8469848632812,219.11465454101562 530.8469848632812,165.86268615722656 530.8469848632812,112.610107421875 584.0985107421875,112.610107421875 584.0985107421875,165.86268615722656 637.3505249023438,165.86268615722656 637.3505249023438,112.610107421875 690.6019287109375,112.610107421875 690.6019287109375,165.86268615722656 690.6019287109375,219.11465454101562 637.3505249023438,219.11465454101562 637.3505249023438,272.3663330078125 690.6019287109375,272.3663330078125 743.854248046875,272.3663330078125 797.1061401367188,272.3663330078125 797.1061401367188,219.11465454101562 743.854248046875,219.11465454101562 743.854248046875,165.86268615722656 743.854248046875,112.610107421875 797.1061401367188,112.610107421875 797.1061401367188,165.86268615722656 850.357666015625,165.86268615722656 850.357666015625,112.610107421875 903.610107421875,112.610107421875 903.610107421875,165.86268615722656 903.610107421875,219.11465454101562 850.357666015625,219.11465454101562 850.357666015625,272.3663330078125 903.610107421875,272.3663330078125 903.610107421875,325.6183776855469 903.610107421875,378.87005615234375 850.357666015625,378.87005615234375 850.357666015625,325.6183776855469 797.1061401367188,325.6183776855469 743.854248046875,325.6183776855469 743.854248046875,378.87005615234375 797.1061401367188,378.87005615234375 797.1061401367188,432.1216735839844 743.854248046875,432.1216735839844 743.854248046875,485.3739013671875 797.1061401367188,485.3739013671875 850.357666015625,485.3739013671875 850.357666015625,432.1216735839844 903.610107421875,432.1216735839844 903.610107421875,485.3739013671875 903.610107421875,538.6259765625 850.357666015625,538.6259765625 850.357666015625,591.8773193359375 903.610107421875,591.8773193359375 903.610107421875,645.1301879882812 903.610107421875,698.3812255859375 850.357666015625,698.3812255859375 850.357666015625,645.1301879882812 797.1061401367188,645.1301879882812 797.1061401367188,698.3812255859375 743.854248046875,698.3812255859375 743.854248046875,645.1301879882812 743.854248046875,591.8773193359375 797.1061401367188,591.8773193359375 797.1061401367188,538.6259765625 743.854248046875,538.6259765625 690.6019287109375,538.6259765625 690.6019287109375,591.8773193359375 637.3505249023438,591.8773193359375 637.3505249023438,538.6259765625 584.0985107421875,538.6259765625 530.8469848632812,538.6259765625 530.8469848632812,591.8773193359375 584.0985107421875,591.8773193359375 584.0985107421875,645.1301879882812 530.8469848632812,645.1301879882812 530.8469848632812,698.3812255859375 584.0985107421875,698.3812255859375 637.3505249023438,698.3812255859375 637.3505249023438,645.1301879882812 690.6019287109375,645.1301879882812 690.6019287109375,698.3812255859375 690.6019287109375,751.6329956054688 690.6019287109375,804.8850708007812 637.3505249023438,804.8850708007812 637.3505249023438,751.6329956054688 584.0985107421875,751.6329956054688 530.8469848632812,751.6329956054688 530.8469848632812,804.8850708007812 584.0985107421875,804.8850708007812 584.0985107421875,858.13720703125 530.8469848632812,858.13720703125 530.8469848632812,911.3889770507812 584.0985107421875,911.3889770507812 637.3505249023438,911.3889770507812 637.3505249023438,858.13720703125 690.6019287109375,858.13720703125 690.6019287109375,911.3889770507812 743.854248046875,911.3889770507812 797.1061401367188,911.3889770507812 797.1061401367188,858.13720703125 743.854248046875,858.13720703125 743.854248046875,804.8850708007812 743.854248046875,751.6329956054688 797.1061401367188,751.6329956054688 797.1061401367188,804.8850708007812 850.357666015625,804.8850708007812 850.357666015625,751.6329956054688 903.610107421875,751.6329956054688 903.610107421875,804.8850708007812 903.610107421875,858.13720703125 850.357666015625,858.13720703125 850.357666015625,911.3889770507812 903.610107421875,911.3889770507812" id="7qKj8B4NFRrfMs4ec" type="simple_path" name="undefined" stroke="#000000" stroke-width="2" stroke-opacity="1" fill="#f4f4f4" fill-opacity="0" stroke-linejoin="miter" stroke-linecap="butt" opacity="1"/><path d="M130.097900390625,889.4297485351562 130.097900390625,782.5853271484375 236.9421844482422,782.5853271484375 236.9421844482422,889.4297485351562 343.78643798828125,889.4297485351562 450.63116455078125,889.4297485351562 450.63116455078125,782.5853271484375 343.78643798828125,782.5853271484375 343.78643798828125,675.7407836914062 450.63116455078125,675.7407836914062 450.63116455078125,568.8958740234375 343.78643798828125,568.8958740234375 236.9421844482422,568.8958740234375 236.9421844482422,675.7407836914062 130.097900390625,675.7407836914062 130.097900390625,568.8958740234375 130.097900390625,462.0521240234375 236.9421844482422,462.0521240234375 236.9421844482422,355.2073669433594 130.097900390625,355.2073669433594 130.097900390625,248.36325073242188 130.097900390625,141.51878356933594 236.9421844482422,141.51878356933594 236.9421844482422,248.36325073242188 343.78643798828125,248.36325073242188 343.78643798828125,141.51878356933594 450.63116455078125,141.51878356933594 450.63116455078125,248.36325073242188 450.63116455078125,355.2073669433594 343.78643798828125,355.2073669433594 343.78643798828125,462.0521240234375 450.63116455078125,462.0521240234375 557.4749755859375,462.0521240234375 664.3199462890625,462.0521240234375 664.3199462890625,355.2073669433594 557.4749755859375,355.2073669433594 557.4749755859375,248.36325073242188 557.4749755859375,141.51878356933594 664.3199462890625,141.51878356933594 664.3199462890625,248.36325073242188 771.1644287109375,248.36325073242188 771.1644287109375,141.51878356933594 878.0087890625,141.51878356933594 878.0087890625,248.36325073242188 878.0087890625,355.2073669433594 771.1644287109375,355.2073669433594 771.1644287109375,462.0521240234375 878.0087890625,462.0521240234375 878.0087890625,568.8958740234375 878.0087890625,675.7407836914062 771.1644287109375,675.7407836914062 771.1644287109375,568.8958740234375 664.3199462890625,568.8958740234375 557.4749755859375,568.8958740234375 557.4749755859375,675.7407836914062 664.3199462890625,675.7407836914062 664.3199462890625,782.5853271484375 557.4749755859375,782.5853271484375 557.4749755859375,889.4297485351562 664.3199462890625,889.4297485351562 771.1644287109375,889.4297485351562 771.1644287109375,782.5853271484375 878.0087890625,782.5853271484375 878.0087890625,889.4297485351562" id="jLWwPnbZTzNNK2BRC" type="simple_path" name="undefined" stroke="#4932b6" stroke-width="5" stroke-opacity="1" fill="#f4f4f4" fill-opacity="0" stroke-linejoin="miter" stroke-linecap="butt" opacity="1"/><path d="M723.8297729492188,726.572509765625 724.7518920898438,303.0188903808594 286.49884033203125,301.689208984375 287.8818054199219,721.919921875" id="5Jb2zHjE9TsdKXjD3" type="simple_path" name="undefined" stroke="#3ea769" stroke-width="12" stroke-opacity="0.6512784914483939" fill="#000000" fill-opacity="0" stroke-linejoin="miter" stroke-linecap="butt" opacity="1"/></g></svg>