<svg width="1448" height="1024" xmlns="http://www.w3.org/2000/svg" xmlns:xlink="http://www.w3.org/1999/xlink" onload="init()" id="H7RT6gcDCdgAsBAc3"><script type="application/javascript"> <![CDATA[ 
function init(){}
 ]]> </script><g id="sTwzQt9rSSiCTMkxM" type="layer"><title>sTwzQt9rSSiCTMkxM</title><path d="M325.045048567142 911.4519209489645C545.3635300124545 691.1333174333395 902.280155989017 691.1333174333395 1122.5985153640167 911.4519209489645" name="http://lore-mbp.local:3000/icons/black_kitty_1024x1024.jpg" id="ady62ea2LYN4zYYTb" type="complex_path" stroke="#0c0c0c" stroke-width="9" stroke-opacity="1" fill="#000000" fill-opacity="0" stroke-linejoin="miter" stroke-linecap="butt" opacity="1"/><path d="M1124.2811784696228 645.4507064941746C1050.8005876493103 718.9314193847996 1050.8005876493103 837.9702377441746 1124.2811784696228 911.4507064941746M1124.6379899930603 380.07601166995585C1198.1185808133728 453.55672456058085 1198.1185808133728 572.5956039551121 1124.6379899930603 646.0760727051121M859.4276628446228 380.8868637207371C932.9082536649353 307.40621186526835 1051.9470720243103 307.40621186526835 1125.4276628446228 380.8868637207371M592.3348894071228 382.121208203159C665.8155412625915 455.6017990234715 784.8542985868103 455.6017990234715 858.3348894071228 382.121208203159M325.2421464872009 381.00411225589335C398.7227678250915 307.5234604004246 517.7615251493103 307.5234604004246 591.2421159696228 381.00411225589335M325.0940751981384 381.1296920898777C251.6134843778259 454.6104049805027 251.6134843778259 573.6492538574558 325.0940751981384 647.1297226074558M324.3970842313415 645.1103134277683C397.877675051654 718.5910263183933 397.877675051654 837.6298446777683 324.3970842313415 911.1103134277683" name="http://lore-mbp.local:3000/icons/black_kitty_1024x1024.jpg" id="zhcPGY7fpbThXpyw6" type="complex_path" stroke="#c33939" stroke-width="7" stroke-opacity="1" fill="#000000" fill-opacity="0" stroke-linejoin="round" stroke-linecap="round" opacity="1"/><path d="M590.7609938625384 292.74328296295596C566.3098219875384 317.1944853555341 566.3098219875384 356.8054777871747 590.7609938625384 381.2566191445966M590.8797072414446 204.43801562897147C615.3308791164446 228.88921802154954 615.3308791164446 268.50024097076846 590.8797072414446 292.95138232819033M502.6291579250384 204.7078215371746C527.0803298000384 180.2566191445965 566.6912917141009 180.2566191445965 591.1424635891009 204.7078215371746M413.75214376488213 205.11855762115897C438.2033766750384 229.5697294961589 477.8143385891009 229.5697294961589 502.2655104641009 205.11855762115897M324.87519063988213 204.74682300201835C349.32636251488213 180.29562060944025 388.93735494652276 180.29562060944025 413.38852682152276 204.74682300201835M324.8259352687884 204.7886320840496C300.37473287621026 229.23983447662766 300.37473287621026 268.85082690826846 324.8259352687884 293.30196826569033M324.5940016750384 292.63000171295596C349.0451735500384 317.0812346231122 349.0451735500384 356.69222705475283 324.5940016750384 381.1433684121747" name="http://lore-mbp.local:3000/icons/black_kitty_1024x1024.jpg" id="Rqnr84KRtRnLLxcsg" type="complex_path" stroke="#4d62c5" stroke-width="2" stroke-opacity="1" fill="#000000" fill-opacity="0" stroke-linejoin="round" stroke-linecap="round" opacity="1"/><path d="M1124.6658376093371 292.126050869222C1100.2146657343371 316.57725326180014 1100.2146657343371 356.18824569344076 1124.6658376093371 380.63938705086264M1124.7844899530871 203.82078353523764C1149.2356618280871 228.27198592781576 1149.2356618280871 267.8830088770345 1124.7844899530871 292.3341502344564M1036.5340016718371 204.09058944344076C1060.9851735468371 179.63938705086264 1100.5961354608996 179.63938705086264 1125.0473073358996 204.09058944344076M947.6569264765246 204.50132552742514C972.1081593866809 228.95249740242514 1011.7191213007434 228.95249740242514 1036.1703542108996 204.50132552742514M858.7799733515246 204.1295909082845C883.2311452265246 179.6783885157064 922.8421681757434 179.6783885157064 947.2933400507434 204.1295909082845M858.7307179804309 204.17139999031576C834.2795461054309 228.6226023828939 834.2795461054309 268.2335948145345 858.7307179804309 292.6847361719564M858.4987843866809 292.012769619222C882.9499562616809 316.46400252937826 882.9499562616809 356.0749949610189 858.4987843866809 380.52613631844076" name="http://lore-mbp.local:3000/icons/black_kitty_1024x1024.jpg" id="MPpMbxTzhdJdDT9Ns" type="complex_path" stroke="#4d62c5" stroke-width="2" stroke-opacity="1" fill="#000000" fill-opacity="0" stroke-linejoin="round" stroke-linecap="round" opacity="1"/><path d="M1035.8403011950204 911.8796948280676C1060.2914730700204 887.4285229530676 1099.902434984083 887.4285229530676 1124.353606859083 911.8796948280676M947.5350033434579 911.9983471718176C971.9862362536142 936.4495190468176 1011.5971981676767 936.4495190468176 1036.0483700426767 911.9983471718176M947.8048397692392 823.7478588905677C923.3536068590829 848.1990307655676 923.3536068590829 887.8099926796301 947.8048397692392 912.2611645546301M948.2155453356454 734.8707226600989C972.6667172106454 759.3219555702552 972.6667172106454 798.9329174843177 948.2155453356454 823.3842114296302M947.8438412340829 645.9937695350989C923.3926083239267 670.4449414100989 923.3926083239267 710.0559643593176 947.8438412340829 734.5071362343176M947.8856503161142 645.9445141640051C972.3368221911142 621.4933422890051 1011.9478451403329 621.4933422890051 1036.3988949450204 645.9445141640051M1035.7270199450204 645.7125805702551C1060.1781918200204 670.1637524452551 1099.7892147692392 670.1637524452551 1124.240325609083 645.7125805702551" name="http://lore-mbp.local:3000/icons/black_kitty_1024x1024.jpg" id="EPjkyD3MfdEAeYTia" type="complex_path" stroke="#4d62c5" stroke-width="2" stroke-opacity="1" fill="#000000" fill-opacity="0" stroke-linejoin="round" stroke-linecap="round" opacity="1"/><path d="M235.90890502929688 646.4703979492188C260.3600769042969 622.0192260742188 299.9710388183594 622.0192260742188 324.4222106933594 646.4703979492188M147.60360717773438 646.5890502929688C172.05484008789062 671.0402221679688 211.66580200195312 671.0402221679688 236.11697387695312 646.5890502929688M147.87344360351562 558.3385620117188C123.42221069335938 582.7897338867188 123.42221069335938 622.4006958007812 147.87344360351562 646.8518676757812M148.28414916992188 469.4613952636719C172.73532104492188 493.9126281738281 172.73532104492188 533.5236206054688 148.28414916992188 557.9749145507812M147.91244506835938 380.5844421386719C123.46121215820312 405.0356140136719 123.46121215820312 444.6466369628906 147.91244506835938 469.0978088378906M147.95425415039062 380.5351867675781C172.40542602539062 356.0840148925781 212.01644897460938 356.0840148925781 236.46749877929688 380.5351867675781M235.79562377929688 380.3032531738281C260.2467956542969 404.7544250488281 299.8578186035156 404.7544250488281 324.3089294433594 380.3032531738281M412.0277404785156 911.2625122070312C387.5765686035156 886.8113403320312 347.9656066894531 886.8113403320312 323.5144348144531 911.2625122070312M500.3330383300781 911.3811645507812C475.8818054199219 935.8323364257812 436.2708435058594 935.8323364257812 411.8196716308594 911.3811645507812M500.0632019042969 823.1306762695312C524.5144653320312 847.5818481445312 524.5144653320312 887.1928100585938 500.0632019042969 911.6439819335938M499.6524963378906 734.2535400390625C475.2013244628906 758.7047729492188 475.2013244628906 798.3157348632812 499.6524963378906 822.7670288085938M500.0242004394531 645.3765869140625C524.4754638671875 669.8277587890625 524.4754638671875 709.4387817382812 500.0242004394531 733.8899536132812M499.9823913574219 645.3273315429688C475.5312194824219 620.8761596679688 435.9201965332031 620.8761596679688 411.4691467285156 645.3273315429688M412.1410217285156 645.0953979492188C387.6898498535156 669.5465698242188 348.0788269042969 669.5465698242188 323.6277160644531 645.0953979492188M590.760986328125 292.7432861328125C566.309814453125 317.1944885253906 566.309814453125 356.80548095703125 590.760986328125 381.2566223144531M590.8796997070312 204.43801879882812C615.3308715820312 228.88922119140625 615.3308715820312 268.500244140625 590.8796997070312 292.9513854980469M502.629150390625 204.70782470703125C527.080322265625 180.25662231445312 566.6912841796875 180.25662231445312 591.1424560546875 204.70782470703125M413.75213623046875 205.11856079101562C438.203369140625 229.56973266601562 477.8143310546875 229.56973266601562 502.2655029296875 205.11856079101562M324.87518310546875 204.746826171875C349.32635498046875 180.29562377929688 388.9373474121094 180.29562377929688 413.3885192871094 204.746826171875M324.825927734375 204.78863525390625C300.3747253417969 229.23983764648438 300.3747253417969 268.850830078125 324.825927734375 293.3019714355469M324.593994140625 292.6300048828125C349.045166015625 317.08123779296875 349.045166015625 356.6922302246094 324.593994140625 381.14337158203125M857.4048461914062 470.0966491699219C832.9536743164062 445.64544677734375 832.9536743164062 406.0344543457031 857.4048461914062 381.58331298828125M857.5234985351562 558.4019165039062C881.9746704101562 533.95068359375 881.9746704101562 494.3397216796875 857.5234985351562 469.8885803222656M769.2730102539062 558.132080078125C793.7241821289062 582.5833129882812 833.3351440429688 582.5833129882812 857.7863159179688 558.132080078125M680.3958740234375 557.7213745117188C704.8471069335938 533.2702026367188 744.4580688476562 533.2702026367188 768.9093627929688 557.7213745117188M591.5189208984375 558.0930786132812C615.9700927734375 582.5443115234375 655.5811157226562 582.5443115234375 680.0322875976562 558.0930786132812M591.4696655273438 558.05126953125C567.0184936523438 533.60009765625 567.0184936523438 493.9891052246094 591.4696655273438 469.5379943847656M591.2377319335938 470.2099304199219C615.6889038085938 445.7586975097656 615.6889038085938 406.147705078125 591.2377319335938 381.6965637207031M1124.6658935546875 292.12603759765625C1100.2147216796875 316.5772399902344 1100.2147216796875 356.188232421875 1124.6658935546875 380.6393737792969M1124.7845458984375 203.82078552246094C1149.2357177734375 228.27198791503906 1149.2357177734375 267.88299560546875 1124.7845458984375 292.3341369628906M1036.5340576171875 204.09059143066406C1060.9852294921875 179.63938903808594 1100.59619140625 179.63938903808594 1125.04736328125 204.09059143066406M947.6569213867188 204.50132751464844C972.108154296875 228.95249938964844 1011.7191162109375 228.95249938964844 1036.17041015625 204.50132751464844M858.7799682617188 204.1295928955078C883.2311401367188 179.6783905029297 922.8421630859375 179.6783905029297 947.2933349609375 204.1295928955078M858.730712890625 204.17140197753906C834.279541015625 228.6226043701172 834.279541015625 268.23358154296875 858.730712890625 292.6847229003906M858.498779296875 292.01275634765625C882.949951171875 316.4639892578125 882.949951171875 356.0749816894531 858.498779296875 380.526123046875M1212.5762939453125 645.8531494140625C1188.1251220703125 621.4019775390625 1148.51416015625 621.4019775390625 1124.06298828125 645.8531494140625M1300.881591796875 645.9718017578125C1276.430419921875 670.4229736328125 1236.8194580078125 670.4229736328125 1212.3682861328125 645.9718017578125M1300.61181640625 557.7213134765625C1325.0631103515625 582.1724853515625 1325.0631103515625 621.783447265625 1300.61181640625 646.234619140625M1300.2010498046875 468.84417724609375C1275.7498779296875 493.29541015625 1275.7498779296875 532.9063720703125 1300.2010498046875 557.357666015625M1300.57275390625 379.96722412109375C1325.0240478515625 404.41839599609375 1325.0240478515625 444.0294189453125 1300.57275390625 468.4805908203125M1300.531005859375 379.91796875C1276.079833984375 355.466796875 1236.46875 355.466796875 1212.0177001953125 379.91796875M1212.6895751953125 379.68603515625C1188.2384033203125 404.13720703125 1148.62744140625 404.13720703125 1124.17626953125 379.68603515625M1035.84033203125 911.8796997070312C1060.29150390625 887.4285278320312 1099.9024658203125 887.4285278320312 1124.3536376953125 911.8796997070312M947.5349731445312 911.9983520507812C971.9862060546875 936.4495239257812 1011.59716796875 936.4495239257812 1036.04833984375 911.9983520507812M947.8048095703125 823.7478637695312C923.3535766601562 848.1990356445312 923.3535766601562 887.8099975585938 947.8048095703125 912.2611694335938M948.2155151367188 734.8707275390625C972.6666870117188 759.3219604492188 972.6666870117188 798.9329223632812 948.2155151367188 823.3842163085938M947.8438110351562 645.9937744140625C923.392578125 670.4449462890625 923.392578125 710.0559692382812 947.8438110351562 734.5071411132812M947.8856201171875 645.9445190429688C972.3367919921875 621.4933471679688 1011.9478149414062 621.4933471679688 1036.39892578125 645.9445190429688M1035.72705078125 645.7125854492188C1060.17822265625 670.1637573242188 1099.7891845703125 670.1637573242188 1124.2403564453125 645.7125854492188" name="http://lore-mbp.local:3000/icons/black_kitty_1024x1024.jpg" id="jMGLqffs5eQeYhSbB" type="complex_path" stroke="#4d62c5" stroke-width="2" stroke-opacity="1" fill="#000000" fill-opacity="0" stroke-linejoin="round" stroke-linecap="round" opacity="1"/><path d="M590.7609938625384 292.74328296295596C566.3098219875384 317.1944853555341 566.3098219875384 356.8054777871747 590.7609938625384 381.2566191445966M590.8797072414446 204.43801562897147C615.3308791164446 228.88921802154954 615.3308791164446 268.50024097076846 590.8797072414446 292.95138232819033M502.6291579250384 204.7078215371746C527.0803298000384 180.2566191445965 566.6912917141009 180.2566191445965 591.1424635891009 204.7078215371746M413.75214376488213 205.11855762115897C438.2033766750384 229.5697294961589 477.8143385891009 229.5697294961589 502.2655104641009 205.11855762115897M324.87519063988213 204.74682300201835C349.32636251488213 180.29562060944025 388.93735494652276 180.29562060944025 413.38852682152276 204.74682300201835M324.8259352687884 204.7886320840496C300.37473287621026 229.23983447662766 300.37473287621026 268.85082690826846 324.8259352687884 293.30196826569033M324.5940016750384 292.63000171295596C349.0451735500384 317.0812346231122 349.0451735500384 356.69222705475283 324.5940016750384 381.1433684121747" name="http://lore-mbp.local:3000/icons/black_kitty_1024x1024.jpg" id="jiDWczTacT4zwCbMP" type="complex_path" stroke="#4d62c5" stroke-width="2" stroke-opacity="1" fill="#000000" fill-opacity="0" stroke-linejoin="round" stroke-linecap="round" opacity="1"/><path d="M1124.6658376093371 292.126050869222C1100.2146657343371 316.57725326180014 1100.2146657343371 356.18824569344076 1124.6658376093371 380.63938705086264M1124.7844899530871 203.82078353523764C1149.2356618280871 228.27198592781576 1149.2356618280871 267.8830088770345 1124.7844899530871 292.3341502344564M1036.5340016718371 204.09058944344076C1060.9851735468371 179.63938705086264 1100.5961354608996 179.63938705086264 1125.0473073358996 204.09058944344076M947.6569264765246 204.50132552742514C972.1081593866809 228.95249740242514 1011.7191213007434 228.95249740242514 1036.1703542108996 204.50132552742514M858.7799733515246 204.1295909082845C883.2311452265246 179.6783885157064 922.8421681757434 179.6783885157064 947.2933400507434 204.1295909082845M858.7307179804309 204.17139999031576C834.2795461054309 228.6226023828939 834.2795461054309 268.2335948145345 858.7307179804309 292.6847361719564M858.4987843866809 292.012769619222C882.9499562616809 316.46400252937826 882.9499562616809 356.0749949610189 858.4987843866809 380.52613631844076" name="http://lore-mbp.local:3000/icons/black_kitty_1024x1024.jpg" id="os8nT3LGkzpnth249" type="complex_path" stroke="#4d62c5" stroke-width="2" stroke-opacity="1" fill="#000000" fill-opacity="0" stroke-linejoin="round" stroke-linecap="round" opacity="1"/><path d="M1035.8403011950204 911.8796948280676C1060.2914730700204 887.4285229530676 1099.902434984083 887.4285229530676 1124.353606859083 911.8796948280676M947.5350033434579 911.9983471718176C971.9862362536142 936.4495190468176 1011.5971981676767 936.4495190468176 1036.0483700426767 911.9983471718176M947.8048397692392 823.7478588905677C923.3536068590829 848.1990307655676 923.3536068590829 887.8099926796301 947.8048397692392 912.2611645546301M948.2155453356454 734.8707226600989C972.6667172106454 759.3219555702552 972.6667172106454 798.9329174843177 948.2155453356454 823.3842114296302M947.8438412340829 645.9937695350989C923.3926083239267 670.4449414100989 923.3926083239267 710.0559643593176 947.8438412340829 734.5071362343176M947.8856503161142 645.9445141640051C972.3368221911142 621.4933422890051 1011.9478451403329 621.4933422890051 1036.3988949450204 645.9445141640051M1035.7270199450204 645.7125805702551C1060.1781918200204 670.1637524452551 1099.7892147692392 670.1637524452551 1124.240325609083 645.7125805702551" name="http://lore-mbp.local:3000/icons/black_kitty_1024x1024.jpg" id="qz2bLyrKWw98R6HnT" type="complex_path" stroke="#4d62c5" stroke-width="2" stroke-opacity="1" fill="#000000" fill-opacity="0" stroke-linejoin="round" stroke-linecap="round" opacity="1"/><path d="M295.9139626965523 293.6628467573268C304.13423857545854 285.6779834760768 317.45235380983354 285.6779834760768 325.6732400403023 293.6628467573268M266.2251504406929 293.7015430463893C274.44567046022416 301.68619270459243 287.7629922375679 301.68619270459243 295.98424467897416 293.7015430463893M266.31615385866166 264.88235969677993C258.09517607545854 272.86697883740493 258.09517607545854 285.80243415967055 266.31615385866166 293.7873584760768M266.4538796887398 235.85846443310805C274.67479643678666 243.84328193799087 274.67479643678666 256.7786609663112 266.4538796887398 264.7636768354518M266.32881865358354 206.83473701611587C258.1085427746773 214.81956977978774 258.1085427746773 227.75497932568618 266.32881865358354 235.73981208935805M266.34288725709916 206.81863899365493C274.5634988293648 198.83382148877212 287.8811257824898 198.83382148877212 296.10188994264604 206.81863899365493M295.8760293469429 206.7429248823268C304.09679350709916 214.72769661084243 317.41390166139604 214.72769661084243 325.63497099733354 206.7429248823268M355.12633452272416 380.13336677685805C346.9061501965523 372.1489307417018 333.5880349621773 372.1489307417018 325.3672097668648 380.13336677685805M384.81539091920854 380.17215461865493C376.5946572766304 388.1570789350612 363.2772744641304 388.1570789350612 355.05638823366166 380.17215461865493M384.72472319459916 351.3531543745143C392.9446023449898 359.3380176557643 392.9446023449898 372.27347297802993 384.72472319459916 380.2584278120143M384.58602080202104 322.3293201459987C376.36605009889604 330.3141834272487 376.36605009889604 343.2496082319362 384.58602080202104 351.23428840771743M384.7116006360054 293.30569954052993C392.93233427858354 301.2904102338893 392.93233427858354 314.2258045209987 384.7116006360054 322.2105457319362M384.69759306764604 293.28946418896743C376.4765847668648 285.30472297802993 363.15950713014604 285.30472297802993 354.9384988293648 293.28946418896743M355.1643594250679 293.2138721479518C346.94383940553666 301.1985828413112 333.6266091809273 301.1985828413112 325.40547880983354 293.2138721479518M415.2178262219429 178.14923591748305C406.99703154420854 186.13405342236587 406.99703154420854 199.0694629682643 415.2178262219429 207.05426521435805M415.25768217897416 149.31210823193618C423.47862944459916 157.296925736819 423.47862944459916 170.23239631787368 415.25768217897416 178.21719856396743M385.58748564577104 149.400197221194C393.8079141125679 141.41544075146743 407.12584624147416 141.41544075146743 415.34557280397416 149.400197221194M355.7059548840523 149.53436775342055C363.92711577272416 157.5191699995143 377.2442849621773 157.5191699995143 385.4652627453804 149.53436775342055M325.8253396496773 149.41299934521743C334.0456765637398 141.42812080517837 347.3633340344429 141.42812080517837 355.58345732545854 149.41299934521743M325.8084939465523 149.426564408694C317.58788237428666 157.41139717236587 317.58788237428666 170.34686775342055 325.8084939465523 178.33165474072524M325.73082671022416 178.11215706006118C333.9509805188179 186.0970508588893 333.9509805188179 199.03242988720962 325.73082671022416 207.0172626508815M504.8650430188179 236.0659229292018C496.6445840344429 228.08116645947524 496.6445840344429 215.1456806196315 504.8650430188179 207.160939408694M504.90526518678666 264.90302009717055C513.1257852063179 256.91827888623305 513.1257852063179 243.98277778760024 504.90526518678666 235.99799080029555M475.2346719250679 264.81488533154555C483.4553445324898 272.79974861279555 496.7728799328804 272.79974861279555 504.9937051281929 264.81488533154555M445.35338530397416 264.6807605756862C453.5742715344429 256.6959278120143 466.8916238293648 256.6959278120143 475.1127236828804 264.6807605756862M415.4729226574898 264.8021289838893C423.6934121594429 272.78680915967055 437.01110014772416 272.78680915967055 445.23168120241166 264.8021289838893M415.45616850709916 264.7884571088893C407.2353738293648 256.8037158979518 407.2353738293648 243.86827583447524 415.45616850709916 235.8835498823268M415.37816557741166 236.10294075146743C423.59874663209916 228.11807747021743 423.59874663209916 215.18271370068618 415.37816557741166 207.19794197217055M594.7201455578804 177.9476367963893C586.5002358899117 185.932423783694 586.5002358899117 198.86790962353774 594.7201455578804 206.85269661084243M594.7609780774117 149.11050911084243C602.9813149914742 157.09537239209243 602.9813149914742 170.03078193799087 594.7609780774117 178.01549263135024M565.0903848156929 149.1986591352565C573.3104775891304 141.21382637158462 586.6277383313179 141.21382637158462 594.8486245617867 149.1986591352565M535.2083657727242 149.332814408694C543.4305947766304 157.31760139599868 556.7470010266304 157.31760139599868 564.9672769055367 149.332814408694M505.32735380983354 149.21141548291274C513.5481179699898 141.22655220166274 526.8655313000679 141.22655220166274 535.0859902844429 149.21141548291274M505.31078276491166 149.2250263227565C497.0907510266304 157.20987434521743 497.0907510266304 170.14528389111587 505.31078276491166 178.13004036084243M505.23290190553666 177.91063423291274C513.4541238293648 185.89545173779555 513.4541238293648 198.83084602490493 505.23290190553666 206.81563301220962M624.2765420422554 293.4611560834987C616.0555947766304 285.4764453901393 602.7379067883492 285.4764453901393 594.5179971203804 293.4611560834987M653.9655068860054 293.49991340771743C645.7448037610054 301.4848377241237 632.4268716320992 301.4848377241237 624.2064126477242 293.49991340771743M653.8738931164742 264.68069954052993C662.0958779797554 272.66556282177993 662.0958779797554 285.6009571088893 653.8738931164742 293.5859119428737M653.7365640149117 235.65695686474868C645.5160439953804 243.64183540478774 645.5160439953804 256.57709236279555 653.7365640149117 264.56195564404555M653.8615640149117 206.63316841260024C662.0817788586617 214.61798591748305 662.0817788586617 227.5534717573268 653.8615640149117 235.53818245068618M653.8480142102242 206.61710090771743C645.6269448742867 198.63231392041274 632.3090737805367 198.63231392041274 624.0887368664742 206.61710090771743M624.3142617688179 206.54132576123305C616.0946572766304 214.5261280073268 602.7769692883492 214.5261280073268 594.5554727063179 206.54132576123305M564.8572305188179 380.33536262646743C573.0769570813179 372.35040779248305 586.3948281750679 372.35040779248305 594.6156533703804 380.33536262646743M535.1680215344429 380.37347908154555C543.3885415539742 388.35867805615493 556.7055581555367 388.35867805615493 564.9269937024117 380.37347908154555M535.2578652844429 351.5549060834987C527.0376504406929 359.53949470654555 527.0376504406929 372.47491951123305 535.2578652844429 380.4596912397487M535.3962319836617 322.53091926709243C543.6176675305367 330.51590461865493 543.6176675305367 343.45108528271743 535.3962319836617 351.43582649365493M535.2723306164742 293.50702400342055C527.0505898938179 301.4918262495143 527.0505898938179 314.42728157177993 535.2723306164742 322.4122058881862M535.2857583508492 293.4909717573268C543.5060952649117 285.50626106396743 556.8231118664742 285.50626106396743 565.0444253430367 293.4909717573268M564.8180459485054 293.4152881635768C573.0395425305367 301.3999988569362 586.3572305188179 301.3999988569362 594.5777505383492 293.4152881635768" name="http://lore-mbp.local:3000/icons/black_kitty_1024x1024.jpg" id="eFYjPvieZ6B4S3Xfr" type="complex_path" stroke="#4dc577" stroke-width="2" stroke-opacity="1" fill="#000000" fill-opacity="0" stroke-linejoin="round" stroke-linecap="round" opacity="1"/><path d="M1036.9844223321218 613.4856698650856C1028.9995590508718 621.7059457439918 1028.9995590508718 635.0240609783668 1036.9844223321218 643.2449472088356M1037.0231186211843 583.7968881268043C1045.0077987969655 592.0174081463356 1045.0077987969655 605.3347299236793 1037.0231186211843 613.5559823650856M1008.203965789153 583.8878915447731C1016.188584929778 575.6668832439918 1029.1240097344655 575.6668832439918 1037.1089340508718 583.8878915447731M979.180040007903 584.0255868572731C987.164903289153 592.2465341228981 1000.100206023528 592.2465341228981 1008.0852524102468 584.0255868572731M950.156358367278 583.9005258221168C958.141221648528 575.6802499432106 971.0765854180593 575.6802499432106 979.0614486993093 583.9005258221168M950.140245086028 583.9146249432106C942.155381804778 592.1352059978981 942.155381804778 605.4528329510231 950.140245086028 613.6735971111793M950.064561492278 613.4477670330543C958.0493027032155 621.6685311932106 958.0493027032155 634.9856088299293 950.064561492278 643.2066781658668M1123.454942351653 672.6980722088356C1115.4705063164968 664.4778573650856 1115.4705063164968 651.1597421307106 1123.454942351653 642.9389169353981M1123.493760711028 702.3870980877418C1131.478623992278 694.1663949627418 1131.478623992278 680.8490121502418 1123.493760711028 672.6281259197731M1094.6747299493093 702.2964608807106C1102.6595932305593 710.5163095135231 1115.595079070403 710.5163095135231 1123.5800033868093 702.2964608807106M1065.6508652032155 702.1577279705543C1073.6357895196218 693.9377572674293 1086.571153289153 693.9377572674293 1094.5558334649343 702.1577279705543M1036.6272445977468 702.2833383221168C1044.6119858086843 710.5040414471168 1057.5473495782155 710.5040414471168 1065.532090789153 702.2833383221168M1036.6110702813405 702.2693002361793C1028.626329070403 694.0482919353981 1028.626329070403 680.7312142986793 1036.6110702813405 672.5102059978981M1036.5354477227468 672.7360971111793C1044.5201889336843 664.5155770916481 1044.5201889336843 651.1983163494606 1036.5354477227468 642.9771859783668M921.4708725274343 732.7895639080543C929.455674773528 724.5687387127418 942.3910995782155 724.5687387127418 950.375840789153 732.7895639080543M892.6337143243093 732.8294198650856C900.618516570403 741.0503671307106 913.5539413750905 741.0503671307106 921.5388046563405 732.8294198650856M892.721788054778 703.1591928143043C884.7370468438405 711.3796517986793 884.7370468438405 724.6975839275856 892.721788054778 732.9173104900856M892.8559433282155 673.2776620525856C900.8408066094655 681.4988534588356 900.8408066094655 694.8159921307106 892.8559433282155 703.0370004314918M892.7346054375905 643.3970468182106C884.7496811211843 651.6173837322731 884.7496811211843 664.9350717205543 892.7346054375905 673.1551644939918M892.748155242278 643.3802011150856C900.733018523528 635.1596200603981 913.6684433282155 635.1596200603981 921.6533066094655 643.3802011150856M921.433702117278 643.3025643963356C929.4186874688405 651.5227182049293 942.3539902032155 651.5227182049293 950.3388534844655 643.3025643963356M979.387559539153 822.4367501873512C971.4028183282155 814.2162912029762 958.4672714532155 814.2162912029762 950.482530242278 822.4367501873512M1008.2245956719655 822.4769113201637C1000.239854461028 830.6975534100075 987.3043686211843 830.6975534100075 979.3195663750905 822.4769113201637M1008.1364609063405 792.8064096111793C1016.1213241875905 801.0270822186012 1016.1213241875905 814.3445871014137 1008.1364609063405 822.5654122967262M1008.002305632903 762.9251229900856C1000.0175033868093 771.1460092205543 1000.0175033868093 784.4633309978981 1008.002305632903 792.6844613689918M1008.1237045586843 733.0446298260231C1016.1083847344655 741.2651498455543 1016.1083847344655 754.5828378338356 1008.1237045586843 762.8034188885231M1008.1100326836843 733.0279061932106C1000.1252914727468 724.8070809978981 987.1899277032155 724.8070809978981 979.205186492278 733.0279061932106M979.4245468438405 732.9499032635231C971.4396835625905 741.1704843182106 958.504258757903 741.1704843182106 950.5195785821218 732.9499032635231M921.2692734063405 912.2918527264137C929.254014617278 904.0718820232887 942.189561492278 904.0718820232887 950.1742416680593 912.2918527264137M892.4321152032155 912.332685245945C900.4169784844655 920.5529611248512 913.352403289153 920.5529611248512 921.337022429778 912.332685245945M892.5203110039968 882.6620919842262C884.5353866875905 890.88224579282 884.5353866875905 904.1994454998512 892.5203110039968 912.42033173032M892.6544662774343 852.7800119061012C900.6392074883718 861.0023019451637 900.6392074883718 874.3187081951637 892.6544662774343 882.53898407407M892.533067351653 822.8990304607887C884.548204070403 831.119794620945 884.548204070403 844.4372384686012 892.533067351653 852.6576974529762M892.5466171563405 822.8824288982887C900.5314804375905 814.6624581951637 913.466905242278 814.6624581951637 921.4515854180593 822.8824288982887M921.2321640313405 822.8045480389137C929.2170883477468 831.0257394451637 942.1523910821218 831.0257394451637 950.1372543633718 822.8045480389137M1036.7827621758718 941.8482492107887C1028.7980209649343 933.6273019451637 1028.7980209649343 920.3095529217262 1036.7827621758718 912.08976532407M1036.8215195000905 971.5372140545387C1044.8063827813405 963.3165109295387 1044.8063827813405 949.9985788006325 1036.8215195000905 941.7781198162575M1008.0022445977468 971.4455392498512C1015.987168914153 979.6675851482887 1028.9225326836843 979.6675851482887 1036.9074570000905 971.4455392498512M978.9785019219655 971.308271183445C986.963487273528 963.08781219907 999.8986679375905 963.08781219907 1007.8835312188405 971.308271183445M949.954698211028 971.433271183445C957.9396225274343 979.653486027195 970.875108367278 979.653486027195 978.8597885430593 971.433271183445M949.9387070000905 971.4197213787575C941.9538437188405 963.1985910076637 941.9538437188405 949.88078094907 949.9387070000905 941.6603829998512M949.862901336028 941.8859689373512C957.8477035821218 933.6663644451637 957.8477035821218 920.3486154217262 949.862901336028 912.1272409100075M1123.6569076836843 882.4289376873512C1115.671983367278 890.6486642498512 1115.671983367278 903.9665353436012 1123.6569076836843 912.1873605389137M1123.6950546563405 852.7397287029762C1131.680284148528 860.9602487225075 1131.680284148528 874.2772042889137 1123.6950546563405 882.4986398357887M1094.8765121758718 852.8295724529762C1102.8610702813405 844.6093576092262 1115.796495086028 844.6093576092262 1123.7812362969655 852.8295724529762M1065.8525253594655 852.967939152195C1073.837510711028 861.18937469907 1086.7726913750905 861.18937469907 1094.7573715508718 852.967939152195M1036.8285995782155 852.8439767498512C1044.8134018243093 844.6222970623512 1057.748887664153 844.6222970623512 1065.7338119805593 852.8439767498512M1036.8125473321218 852.8574044842262C1028.8278061211843 861.077802433445 1028.8278061211843 874.3947579998512 1036.8125473321218 882.6160714764137M1036.7368637383718 882.3897531170387C1044.721543914153 890.61124969907 1044.721543914153 903.9289376873512 1036.7368637383718 912.1493966717262" name="http://lore-mbp.local:3000/icons/black_kitty_1024x1024.jpg" id="oMhshy6WWcgrhjhbN" type="complex_path" stroke="#4dc577" stroke-width="2" stroke-opacity="1" fill="#000000" fill-opacity="0" stroke-linejoin="round" stroke-linecap="round" opacity="1"/><path d="M826.8636080700464 293.66284233229413C835.0838839489527 285.67797905104413 848.4019991833277 285.67797905104413 856.6228854137964 293.66284233229413M797.1747958141871 293.70153862135663C805.3953158337183 301.68618827955976 818.7126376110621 301.68618827955976 826.9338900524683 293.70153862135663M797.2657992321558 264.88235527174726C789.0448214489527 272.86697441237226 789.0448214489527 285.8024297346379 797.2657992321558 293.78735405104413M797.4035250622339 235.85846000807538C805.6244418102808 243.8432775129582 805.6244418102808 256.7786565412785 797.4035250622339 264.76367241041913M797.2784640270777 206.8347325910832C789.0581881481714 214.81956535475507 789.0581881481714 227.7549749006535 797.2784640270777 235.73980766432538M797.2925326305933 206.81863456862226C805.5131442028589 198.83381706373945 818.8307711559839 198.83381706373945 827.0515353161402 206.81863456862226M826.8256747204371 206.74292045729413C835.0464388805933 214.72769218580976 848.3635470348902 214.72769218580976 856.5846163708277 206.74292045729413M886.0759798962183 380.1333623518254C877.8557955700464 372.14892631666913 864.5376803356714 372.14892631666913 856.3168551403589 380.1333623518254M915.7650362927027 380.17215019362226C907.5443026501246 388.1570745100285 894.2269198376246 388.1570745100285 886.0060336071558 380.17215019362226M915.6743685680933 351.35314994948163C923.8942477184839 359.33801323073163 923.8942477184839 372.27346855299726 915.6743685680933 380.25842338698163M915.5356661755152 322.329315720966C907.3156954723902 330.314179002216 907.3156954723902 343.2496038069035 915.5356661755152 351.23428398268476M915.6612460094996 293.30569511549726C923.8819796520777 301.29040580885663 923.8819796520777 314.225800095966 915.6612460094996 322.2105413069035M915.6472384411402 293.28945976393476C907.4262301403589 285.30471855299726 894.1091525036402 285.30471855299726 885.8881442028589 293.28945976393476M886.1140047985621 293.21386772291913C877.8934847790308 301.1985784162785 864.5762545544214 301.1985784162785 856.3551241833277 293.21386772291913M946.1674715954371 178.14923149245038C937.9466769177027 186.1340489973332 937.9466769177027 199.06945854323163 946.1674715954371 207.05426078932538M946.2073275524683 149.3121038069035C954.4282748180933 157.29692131178632 954.4282748180933 170.232391892841 946.2073275524683 178.21719413893476M916.5371310192652 149.40019279616132C924.7575594860621 141.41543632643476 938.0754916149683 141.41543632643476 946.2952181774683 149.40019279616132M886.6556002575464 149.53436332838788C894.8767611462183 157.51916557448163 908.1939303356714 157.51916557448163 916.4149081188746 149.53436332838788M856.7749850231714 149.41299492018476C864.9953219372339 141.4281163801457 878.3129794079371 141.4281163801457 886.5331026989527 149.41299492018476M856.7581393200464 149.42655998366132C848.5375277477808 157.4113927473332 848.5375277477808 170.34686332838788 856.7581393200464 178.33165031569257M856.6804720837183 178.1121526350285C864.9006258923121 186.09704643385663 864.9006258923121 199.03242546217695 856.6804720837183 207.01725822584882M1035.814688392312 236.06591850416913C1027.594229407937 228.08116203444257 1027.594229407937 215.14567619459882 1035.814688392312 207.16093498366132M1035.8549105602808 264.9030156721379C1044.075430579812 256.9182744612004 1044.075430579812 243.98277336256757 1035.8549105602808 235.99798637526288M1006.1843172985621 264.8148809065129C1014.4049899059839 272.7997441877629 1027.7225253063746 272.7997441877629 1035.943350501687 264.8148809065129M976.3030306774683 264.6807561506535C984.5239169079371 256.69592338698163 997.8412692028589 256.69592338698163 1006.0623690563746 264.6807561506535M946.4225680309839 264.80212455885663C954.6430575329371 272.7868047346379 967.9607455212183 272.7868047346379 976.1813265759058 264.80212455885663M946.4058138805933 264.78845268385663C938.1850192028589 256.80371147291913 938.1850192028589 243.86827140944257 946.4058138805933 235.88354545729413M946.3278109509058 236.10293632643476C954.5483920055933 228.11807304518476 954.5483920055933 215.1827092756535 946.3278109509058 207.19793754713788M1125.6697909313746 177.94763237135663C1117.4498812634058 185.93241935866132 1117.4498812634058 198.86790519850507 1125.6697909313746 206.85269218580976M1125.7106234509058 149.11050468580976C1133.9309603649683 157.09536796705976 1133.9309603649683 170.0307775129582 1125.7106234509058 178.01548820631757M1096.040030189187 149.19865471022382C1104.2601229626246 141.21382194655195 1117.577383704812 141.21382194655195 1125.7982699352808 149.19865471022382M1066.1580111462183 149.33280998366132C1074.3802401501246 157.317596970966 1087.6966464001246 157.317596970966 1095.9169222790308 149.33280998366132M1036.2769991833277 149.21141105788007C1044.4977328259058 141.22654777663007 1057.815176673562 141.22654777663007 1066.035635657937 149.21141105788007M1036.2604281384058 149.22502189772382C1028.0403964001246 157.20986992018476 1028.0403964001246 170.1452794660832 1036.2604281384058 178.13003593580976M1036.1825472790308 177.91062980788007C1044.4037386852808 185.89544731276288 1044.4037386852808 198.83084159987226 1036.1825472790308 206.81562858717695M1155.2261874157496 293.461151658466C1147.0052401501246 285.47644096510663 1133.6875521618433 285.47644096510663 1125.4676424938746 293.461151658466M1184.9151522594996 293.49990898268476C1176.6944491344996 301.484833299091 1163.3765170055933 301.484833299091 1155.1560580212183 293.49990898268476M1184.8235384899683 264.68069511549726C1193.0455233532496 272.66555839674726 1193.0455233532496 285.60095268385663 1184.8235384899683 293.585907517841M1184.6862093884058 235.656952439716C1176.4656893688746 243.64183097975507 1176.4656893688746 256.5770879377629 1184.6862093884058 264.5619512190129M1184.8112093884058 206.63316398756757C1193.0314242321558 214.61798149245038 1193.0314242321558 227.55346733229413 1184.8112093884058 235.5381780256535M1184.7976595837183 206.61709648268476C1176.5765902477808 198.63230949538007 1163.2587191540308 198.63230949538007 1155.0383822399683 206.61709648268476M1155.263907142312 206.54132133620038C1147.0443026501246 214.52612358229413 1133.7266146618433 214.52612358229413 1125.505118079812 206.54132133620038M1095.806875892312 380.33535820143476C1104.026602454812 372.3504033674504 1117.344473548562 372.3504033674504 1125.5652987438746 380.33535820143476M1066.117666907937 380.3734746565129C1074.3381869274683 388.35867363112226 1087.6552035290308 388.35867363112226 1095.8766390759058 380.3734746565129M1066.207510657937 351.554901658466C1057.987295814187 359.5394902815129 1057.987295814187 372.4749150862004 1066.207510657937 380.459686814716M1066.3458773571558 322.53091484205976C1074.5673129040308 330.51590019362226 1074.5673129040308 343.45108085768476 1066.3458773571558 351.43582206862226M1066.2219759899683 293.5070195783879C1058.000235267312 301.49182182448163 1058.000235267312 314.42727714674726 1066.2219759899683 322.4122014631535M1066.2354037243433 293.49096733229413C1074.4557406384058 285.50625663893476 1087.7727572399683 285.50625663893476 1095.9940707165308 293.49096733229413M1095.7676913219996 293.41528373854413C1103.9891879040308 301.3999944319035 1117.306875892312 301.3999944319035 1125.5273959118433 293.41528373854413" name="http://lore-mbp.local:3000/icons/black_kitty_1024x1024.jpg" id="bwSb4mYHKJ5BW5HRk" type="complex_path" stroke="#4dc577" stroke-width="2" stroke-opacity="1" fill="#000000" fill-opacity="0" stroke-linejoin="round" stroke-linecap="round" opacity="1"/><path d="M561.8906346319154 466.75502387977997C570.1109105108217 474.73988716102997 583.4290257451967 474.73988716102997 591.6499119756654 466.75502387977997M532.2018528936342 466.71632759071747C540.4223729131654 458.73167793251434 553.7396946905092 458.73167793251434 561.9609471319154 466.71632759071747M532.2928563116029 495.53551094032684C524.0718480108217 487.55089179970184 524.0718480108217 474.6154364774362 532.2928563116029 466.63051216102997M532.4305516241029 524.5594062039987C540.6514988897279 516.5745734403268 540.6514988897279 503.6392096707956 532.4305516241029 495.65419380165497M532.3054905889467 553.58314887978C524.0852147100404 545.59828559853 524.0852147100404 532.6628913114206 532.3054905889467 524.6780585477487M532.3195897100404 553.5992316434518C540.5401707647279 561.5840338895456 553.8577977178529 561.5840338895456 562.0785618780092 553.5992316434518M561.8527317998842 553.67494575478C570.0734959600404 545.6901740262643 583.3905735967592 545.6901740262643 591.6116429326967 553.67494575478M621.1030369756654 380.2845038602487C612.8828221319154 388.26893989540497 599.5647068975404 388.26893989540497 591.3438817022279 380.2845038602487M650.7920628545717 380.24571601845184C642.5713597295717 372.2607917020456 629.2539769170717 372.2607917020456 621.0330906866029 380.24571601845184M650.7014256475404 409.06471626259247C658.9212742803529 401.07985298134247 658.9212742803529 388.14439765907684 650.7014256475404 380.15944282509247M650.5626927373842 438.0885504911081C642.3427220342592 430.1036872098581 642.3427220342592 417.1682624051706 650.5626927373842 409.18358222938934M650.6883030889467 467.11217109657684C658.9090062139467 459.12746040321747 658.9090062139467 446.1920661161081 650.6883030889467 438.2073249051706M650.6742650030092 467.12840644813934C642.4532567022279 475.11314765907684 629.1361790655092 475.11314765907684 620.9151707647279 467.12840644813934M621.1410618780092 467.20399848915497C612.9205418584779 459.2192877957956 599.6032811162904 459.2192877957956 591.3821507451967 467.20399848915497M681.1945286748842 582.2686347196237C672.9737034795717 574.28383247353 672.9737034795717 561.3484076688425 681.1945286748842 553.3636054227487M681.2343846319154 611.1057624051706C689.4553318975404 603.1209296414987 689.4553318975404 590.1854743192331 681.2343846319154 582.2006720731393M651.5641575811342 611.0176886747018C659.7846165655092 619.0024298856393 673.1025486944154 619.0024298856393 681.3222752569154 611.0176886747018M621.6826268194154 610.8835028836862C629.9038182256654 602.8987006375925 643.2209568975404 602.8987006375925 651.4419651983217 610.8835028836862M591.8020115850404 611.0048712918893C600.0223484991029 618.9897650907175 613.3400364873842 618.9897650907175 621.5601292608217 611.0048712918893M591.7851658819154 610.9912909696237C583.5645848272279 603.00648872353 583.5645848272279 590.0710028836862 591.7851658819154 582.0862006375925M591.7075291631654 582.3057135770456C599.9276829717592 574.3208197782175 599.9276829717592 561.3854560086862 591.7075291631654 553.4005927274362M770.8417454717592 524.351947707905C762.6212864873842 532.3366889188425 762.6212864873842 545.2721747586862 770.8417454717592 553.2569464872018M770.8819066045717 495.5148505399362C779.1024876592592 503.4995917508737 779.1024876592592 516.4350775907175 770.8819066045717 524.4198798368112M741.2113743780092 495.6029853055612C749.4320164678529 487.6181220243112 762.7495823858217 487.6181220243112 770.9704075811342 495.6029853055612M711.3300877569154 495.7371100614206C719.5509739873842 503.72194282509247 732.8682957647279 503.72194282509247 741.0894261358217 495.7371100614206M681.4495945928529 495.61574165321747C689.6701146123842 487.6310614774362 702.9878026006654 487.6310614774362 711.2083836553529 495.61574165321747M681.4328709600404 495.62941352821747C673.2120457647279 503.61415473915497 673.2120457647279 516.5495795438425 681.4328709600404 524.53432075478M681.3548680303529 524.3149298856393C689.5754490850404 532.2997931668893 689.5754490850404 545.2351569364206 681.3548680303529 553.2199286649362M860.6968480108217 582.4702338407175C852.4768773076967 574.4854315946237 852.4768773076967 561.54994575478 860.6968480108217 553.5651740262643M860.7376194951967 611.3073615262643C868.9579564092592 603.3224982450143 868.9579564092592 590.387103957905 860.7376194951967 582.4023932645456M831.0670872686342 611.2191962430612C839.2871800420717 619.2040595243112 852.6044407842592 619.2040595243112 860.8252659795717 611.2191962430612M801.1850071905092 611.0850409696237C809.4072972295717 603.1002692411081 822.7237034795717 603.1002692411081 830.9439183233217 611.0850409696237M771.3040257451967 611.206439895405C779.5247288701967 619.191303176655 792.8422337530092 619.191303176655 801.0626927373842 611.206439895405M771.2874241826967 611.1928290555612C763.0674534795717 603.2079962918893 763.0674534795717 590.27260200478 771.2874241826967 582.2878302762643M771.2095433233217 582.5072516629831C779.4307347295717 574.5224188993112 779.4307347295717 561.5870246122018 771.2095433233217 553.6022528836862M890.2532444951967 466.9567145536081C882.0322972295717 474.94142524696747 868.7145482061342 474.94142524696747 860.4946995733217 466.9567145536081M919.9422093389467 466.91795722938934C911.7215062139467 458.9330329129831 898.4035130498842 458.9330329129831 890.1830540655092 466.91795722938934M919.8505345342592 495.73717109657684C928.0725804326967 487.75230781532684 928.0725804326967 474.81691352821747 919.8505345342592 466.8319586942331M919.7132054326967 524.7609137723581C911.4927464483217 516.77601997353 911.4927464483217 503.8407782743112 919.7132054326967 495.8559149930612M919.8382054326967 553.7847174832956C928.0584202764467 545.7998847196237 928.0584202764467 532.86439887978 919.8382054326967 524.8796881864206M919.8246556280092 553.8007697293893C911.6035862920717 561.7855719754831 898.2857151983217 561.7855719754831 890.0653782842592 553.8007697293893M890.2909642217592 553.8765448758737C882.0713597295717 545.89174262978 868.7536107061342 545.89174262978 860.5321751592592 553.8765448758737M830.8339329717592 380.08250801063934C839.0536595342592 388.0674628446237 852.3715306280092 388.0674628446237 860.5923558233217 380.08250801063934M801.1447239873842 380.0443915555612C809.3651829717592 372.05919258095184 822.6821995733217 372.05919258095184 830.9036351201967 380.0443915555612M801.2345677373842 408.8629645536081C793.0143528936342 400.8783759305612 793.0143528936342 387.9429511258737 801.2345677373842 379.9581793973581M801.3728734014467 437.88695137001434C809.5943089483217 429.90196601845184 809.5943089483217 416.96678535438934 801.3728734014467 408.98204414345184M801.2489720342592 466.9108466336862C793.0272923467592 458.92604438759247 793.0272923467592 445.99058906532684 801.2489720342592 438.0056647489206M801.2623997686342 466.92689887977997C809.4827366826967 474.91160957313934 822.7997532842592 474.91160957313934 831.0210667608217 466.92689887977997M830.7947484014467 467.00258247352997C839.0161839483217 459.0178717801706 852.3339329717592 459.0178717801706 860.5543919561342 467.00258247352997" name="http://lore-mbp.local:3000/icons/black_kitty_1024x1024.jpg" id="QxoMeATfy2FQmzEdz" type="complex_path" stroke="#4dc577" stroke-width="2" stroke-opacity="1" fill="#000000" fill-opacity="0" stroke-linejoin="round" stroke-linecap="round" opacity="1"/><path d="M411.14297767664016 615.4930160795507C419.12784095789016 623.7132919584569 419.12784095789016 637.0314071928319 411.14297767664016 645.2522934233007M411.10428138757766 585.8042343412694C403.11954017664004 594.0247543608007 403.11954017664004 607.3420761381444 411.10428138757766 615.5633285795507M439.9233731844527 585.8952377592382C431.93875404382766 577.6742294584569 419.00332923914016 577.6742294584569 411.01846595789016 585.8952377592382M468.94729896570317 586.0329330717382C460.96243568445306 594.2538803373632 448.02713295007794 594.2538803373632 440.04208656335896 586.0329330717382M497.97098060632874 585.9078720365819C489.9861173250786 577.6875961576757 477.05075355554703 577.6875961576757 469.0658902742969 585.9078720365819M497.98709388757874 585.9219711576757C505.97195716882885 594.1425522123632 505.97195716882885 607.4601791654882 497.98709388757874 615.6809433256444M498.06277748132874 615.4551132475194C490.0780362703911 623.6758774076757 490.0780362703911 636.9929550443944 498.06277748132874 645.2140243803319M324.6723966219518 674.7054184233007C332.6568936922643 666.4852035795507 332.6568936922643 653.1670883451757 324.6723966219518 644.9462631498632M324.6335782625768 704.3944443022069C316.6487149813268 696.1737411772069 316.6487149813268 682.8563583647069 324.6335782625768 674.6354721342382M353.4526700594518 704.3038070951757C345.4678067782018 712.5236557279882 332.5322599032018 712.5236557279882 324.5473966219518 704.3038070951757M382.47647377039 704.1650741850194C374.49161048913976 695.9451034818944 361.5561856844518 695.9451034818944 353.5715665438268 704.1650741850194M411.50015541101516 704.2906845365819C403.51541420007754 712.5113876615819 390.57998939539004 712.5113876615819 382.5952481844525 704.2906845365819M411.51626869226516 704.2766464506444C419.50100990320266 696.0556381498632 419.50100990320266 682.7385605131444 411.51626869226516 674.5175522123632M411.59195228601516 674.7434433256444C403.6072110750776 666.5229233061132 403.6072110750776 653.2056625639257 411.59195228601516 644.9845321928319M526.6564664461741 734.7969101225194C518.6716642000804 726.5760849272069 505.73623939539135 726.5760849272069 497.75149818445374 734.7969101225194M555.4936246492991 734.8367660795507C547.5088224032054 743.0577133451757 534.5733975985179 743.0577133451757 526.5885343172679 734.8367660795507M555.4055509188304 705.1665390287694C563.3902921297679 713.3869980131444 563.3902921297679 726.7049301420507 555.4055509188304 734.9246567045507M555.2713956453929 675.2850082670507C547.2865323641429 683.5061996733007 547.2865323641429 696.8233383451757 555.2713956453929 705.0443466459569M555.3927335360179 645.4043930326757C563.3776578524241 653.6247299467382 563.3776578524241 666.9424179350194 555.3927335360179 675.1625107084569M555.3791837313304 645.3875473295507C547.3943204500804 637.1669662748632 534.4588956453929 637.1669662748632 526.4740323641429 645.3875473295507M526.6936368563304 645.3099106108007C518.7086515047679 653.5300644193944 505.77334877039135 653.5300644193944 497.78848548914124 645.3099106108007M468.73977943445317 824.4441269193944C476.7245206453908 816.2236679350194 489.6600675203911 816.2236679350194 497.64480873132874 824.4441269193944M439.9027433016402 824.4842880522069C447.88748451257794 832.7049301420507 460.8229703524218 832.7049301420507 468.80777259851567 824.4842880522069M439.9908780672652 794.8137558256444C432.00601478601516 803.0344589506444 432.00601478601516 816.3519638334569 439.9908780672652 824.5727890287694M440.1250333407027 764.9324692045507C448.1098355867967 773.1533554350194 448.1098355867967 786.4706772123632 440.1250333407027 794.6918075834569M440.00363441492146 735.0519760404882C432.01895423914016 743.2724960600194 432.01895423914016 756.5901840483007 440.00363441492146 764.8107651029882M440.01730628992146 735.0352524076757C448.0020475008592 726.8144272123632 460.93741127039056 726.8144272123632 468.92215248132817 735.0352524076757M468.70279212976567 734.9572494779882C476.6876554110158 743.1778305326757 489.6230802157036 743.1778305326757 497.607760391485 734.9572494779882M526.8580655672679 914.2992294584569C518.8733243563304 906.0792587553319 505.93777748132885 906.0792587553319 497.9530973055475 914.2992294584569M555.6952237703929 914.3400619779882C547.7103604891429 922.5603378568944 534.7749356844554 922.5603378568944 526.7903165438304 914.3400619779882M555.6070279696116 884.6694687162694C563.5919522860179 892.8896225248632 563.5919522860179 906.2068222318944 555.6070279696116 914.4277084623632M555.4728726961741 854.7873886381444C547.4881314852366 863.0096786772069 547.4881314852366 876.3260849272069 555.4728726961741 884.5463608061132M555.5942716219554 824.9064071928319C563.5791349032054 833.1271713529882 563.5791349032054 846.4446152006444 555.5942716219554 854.6650741850194M555.5807218172679 824.8898056303319C547.5958585360179 816.6698349272069 534.6604337313304 816.6698349272069 526.6757535555491 824.8898056303319M526.8951749422679 824.8119247709569C518.9102506258616 833.0331161772069 505.9749478914851 833.0331161772069 497.990084610235 824.8119247709569M411.34463783289016 943.8556259428319C419.32937904382766 935.6346786772069 419.32937904382766 922.3169296537694 411.34463783289016 914.0971420561132M411.30581947351516 973.5445907865819C403.32095619226504 965.3238876615819 403.32095619226504 952.0059555326757 411.30581947351516 943.7854965483007M440.12509437585896 973.4529159818944C432.14017005945266 981.6749618803319 419.20486732507766 981.6749618803319 411.21988197351516 973.4529159818944M469.14883705164067 973.3156479154882C461.16385170007806 965.0951889311132 448.22867103601544 965.0951889311132 440.2438077547652 973.3156479154882M498.17264076257874 973.4406479154882C490.1877164461724 981.6608627592382 477.2522306063283 981.6608627592382 469.2675504305469 973.4406479154882M498.18863197351624 973.4270981108007C506.17349525476635 965.2059677397069 506.17349525476635 951.8881576811132 498.18863197351624 943.6677597318944M498.26443763757874 943.8933456693944C490.2796353914849 935.6737411772069 490.2796353914849 922.3559921537694 498.26443763757874 914.1346176420507M324.4704923250768 884.4363144193944C332.4553556063268 892.6560409818944 332.4553556063268 905.9739120756444 324.4704923250768 914.1947372709569M324.4322843172643 854.7471054350194C316.4470548250768 862.9676254545507 316.4470548250768 876.2845810209569 324.4322843172643 884.5060165678319M353.2508878328893 854.8369491850194C345.2662686922643 846.6167343412694 332.3308438875768 846.6167343412694 324.3461026766393 854.8369491850194M382.27481361414 854.9753158842382C374.28982826257726 863.1967514311132 361.3546475985143 863.1967514311132 353.3700284578893 854.9753158842382M411.29873939539016 854.8513534818944C403.31399818445254 846.6296737943944 390.37845130945254 846.6296737943944 382.3935880282025 854.8513534818944M411.31485267664016 854.8647812162694C419.29959388757766 863.0851791654882 419.29959388757766 876.4021347318944 411.31485267664016 884.6234482084569M411.39053627039016 884.3971298490819C403.40579505945254 892.6186264311132 403.40579505945254 905.9363144193944 411.39053627039016 914.1567734037694" name="http://lore-mbp.local:3000/icons/black_kitty_1024x1024.jpg" id="YnwhL2aKNNe7yGKvu" type="complex_path" stroke="#4dc577" stroke-width="2" stroke-opacity="1" fill="#000000" fill-opacity="0" stroke-linejoin="round" stroke-linecap="round" opacity="1"/><path d="M237.04700001648456 349.51636708638284C229.06213673523456 357.7366429652891 229.06213673523456 371.0547581996641 237.04700001648456 379.27564443013284M237.08569630554706 319.8275853481016C245.0704375164845 328.04810536763284 245.0704375164845 341.3654271449766 237.08569630554706 349.58667958638284M208.26660450867206 319.91858876607034C216.25122364929706 311.6975804652891 229.18664845398456 311.6975804652891 237.17151173523456 319.91858876607034M179.24267872742206 320.05628407857034C187.22754200867206 328.27723134419534 200.16284474304706 328.27723134419534 208.1478911297658 320.05628407857034M150.21899708679706 319.9312230434141C158.20386036804706 311.71094716450784 171.1392241375783 311.71094716450784 179.1240874188283 319.9312230434141M150.20288380554706 319.94532216450784C142.21802052429706 328.16590321919534 142.21802052429706 341.48353017232034 150.20288380554706 349.7042943324766M150.12720021179706 349.4784642543516C158.11194142273456 357.69922841450784 158.11194142273456 371.0163060512266 150.12720021179706 379.2373753871641M323.517581071172 408.72876943013284C315.5330840008595 400.50855458638284 315.5330840008595 387.19043935200784 323.517581071172 378.96961415669534M323.556399430547 438.4177953090391C331.541262711797 430.1970921840391 331.541262711797 416.8797093715391 323.556399430547 408.65882314107034M294.73730763367195 438.32715810200784C302.72217091492195 446.54700673482034 315.657717789922 446.54700673482034 323.642581071172 438.32715810200784M265.7135039227345 438.1884251918516C273.6983672039845 429.9684544887266 286.63379200867195 429.9684544887266 294.61841114929695 438.1884251918516M236.68982228210956 438.3140355434141C244.674563493047 446.5347386684141 257.6099882977345 446.5347386684141 265.594729508672 438.3140355434141M236.67370900085956 438.2999974574766C228.68896778992206 430.07898915669534 228.68896778992206 416.7619115199766 236.67370900085956 408.54090321919534M236.59802540710956 408.7667943324766C244.582766618047 400.54627431294534 244.582766618047 387.22901357075784 236.59802540710956 379.0078831996641M121.53351124695331 468.8202611293516C129.51831349304706 460.5994359340391 142.45373829773456 460.5994359340391 150.43847950867206 468.8202611293516M92.69635304382831 468.86011708638284C100.68115528992206 477.08106435200784 113.61658009460956 477.08106435200784 121.60144337585956 468.86011708638284M92.78442677429706 439.1898900356016C84.79968556335956 447.4103490199766 84.79968556335956 460.72828114888284 92.78442677429706 468.94800771138284M92.91858204773456 409.30835927388284C100.90344532898456 417.52955068013284 100.90344532898456 430.84668935200784 92.91858204773456 439.0676976527891M92.79724415710956 379.42774403950784C84.81231984070331 387.64808095357034 84.81231984070331 400.9657689418516 92.79724415710956 409.1858617152891M92.81079396179706 379.41089833638284C100.79565724304706 371.19031728169534 113.73108204773456 371.19031728169534 121.71594532898456 379.41089833638284M121.49634083679706 379.33326161763284C129.48132618835956 387.5534154262266 142.41662892273456 387.5534154262266 150.40149220398456 379.33326161763284M179.45019825867206 558.4674779262266C171.46545704773456 550.2470189418516 158.52991017273456 550.2470189418516 150.54516896179706 558.4674779262266M208.28723439148456 558.5076390590391C200.30249318054706 566.7282811488828 187.3670073407033 566.7282811488828 179.38220509460956 558.5076390590391M208.19909962585956 528.8371068324766C216.18396290710956 537.0578099574766 216.18396290710956 550.3753148402891 208.19909962585956 558.5961400356016M208.06494435242206 498.95582021138284C200.0801421063283 507.1767064418516 200.0801421063283 520.4940282191953 208.06494435242206 528.7151585902891M208.1863432782033 469.07532704732034C216.17102345398456 477.2958470668516 216.17102345398456 490.61353505513284 208.1863432782033 498.83411610982034M208.1726714032033 469.05860341450784C200.1879301922658 460.83777821919534 187.25256642273456 460.83777821919534 179.26782521179706 469.05860341450784M179.48718556335956 468.98060048482034C171.50232228210956 477.20118153950784 158.56689747742206 477.20118153950784 150.5822173016408 468.98060048482034M121.33191212585956 648.3225804652891C129.31665333679706 640.1026097621641 142.25220021179706 640.1026097621641 150.2368803875783 648.3225804652891M92.49475392273456 648.3634129848203C100.47961720398456 656.5836888637266 113.41504200867206 656.5836888637266 121.39966114929706 648.3634129848203M92.58294972351581 618.6928197231016C84.59802540710956 626.9129735316953 84.59802540710956 640.2301732387266 92.58294972351581 648.4510594691953M92.71710499695331 588.8107396449766C100.70184620789081 597.0330296840391 100.70184620789081 610.3494359340391 92.71710499695331 618.5697118129453M92.59570607117206 558.9297581996641C84.61084278992206 567.1505223598203 84.61084278992206 580.4679662074766 92.59570607117206 588.6884251918516M92.60925587585956 558.9131566371641C100.59411915710956 550.6931859340391 113.52954396179706 550.6931859340391 121.51422413757831 558.9131566371641M121.29480275085956 558.8352757777891C129.2797270672658 567.0564671840391 142.2150298016408 567.0564671840391 150.1998930828908 558.8352757777891M236.84533986023456 677.8789769496641C228.86059864929706 669.6580296840391 228.86059864929706 656.3402806606016 236.84533986023456 648.1204930629453M236.88415821960956 707.5679417934141C244.8690215008595 699.3472386684141 244.8690215008595 686.0293065395078 236.88415821960956 677.8088475551328M208.0648833172658 707.4762669887266C216.04980763367206 715.6983128871641 228.98511036804706 715.6983128871641 236.97009571960956 707.4762669887266M179.04114064148456 707.3389989223203C187.02612599304706 699.1185399379453 199.96130665710956 699.1185399379453 207.94616993835956 707.3389989223203M150.01733693054706 707.4639989223203C158.0022612469533 715.6842137660703 170.93774708679706 715.6842137660703 178.9224272625783 707.4639989223203M150.00134571960956 707.4504491176328C142.01648243835956 699.2293187465391 142.01648243835956 685.9115086879453 150.00134571960956 677.6911107387266M149.92554005554706 677.9166966762266C157.9103423016408 669.6970921840391 157.9103423016408 656.3793431606016 149.92554005554706 648.1579686488828M323.719485368047 618.4596654262266C315.734622086797 626.6793919887266 315.734622086797 639.9972630824766 323.719485368047 648.2180882777891M323.7576933758595 588.7704564418516C331.742922868047 596.9909764613828 331.742922868047 610.3079320277891 323.7576933758595 618.5293675746641M294.93908986023445 588.8603001918516C302.92370900085945 580.6400853481016 315.859133805547 580.6400853481016 323.8438750164845 588.8603001918516M265.9151640789845 588.9986668910703C273.900149430547 597.2201024379453 286.83533009460945 597.2201024379453 294.81994923523445 588.9986668910703M236.89123829773456 588.8747044887266C244.875979508672 580.6530248012266 257.811526383672 580.6530248012266 265.796389664922 588.8747044887266M236.87512501648456 588.8881322231016C228.89038380554706 597.1085301723203 228.89038380554706 610.4254857387266 236.87512501648456 618.6467992152891M236.79944142273456 618.4204808559141C244.784182633672 626.6419774379453 244.784182633672 639.9596654262266 236.79944142273456 648.1801244106016" name="http://lore-mbp.local:3000/icons/black_kitty_1024x1024.jpg" id="YExagiwnv5JqEpEfu" type="complex_path" stroke="#4dc577" stroke-width="2" stroke-opacity="1" fill="#000000" fill-opacity="0" stroke-linejoin="round" stroke-linecap="round" opacity="1"/><path d="M1212.084004961523 347.50900001821145C1220.068868242773 355.7292758971177 1220.068868242773 369.0473911314927 1212.084004961523 377.26827736196145M1212.0453086724606 317.8202182799302C1204.060567461523 326.04073829946145 1204.060567461523 339.3580600768052 1212.0453086724606 347.57931251821145M1240.8644004693356 317.91122169789895C1232.8797813287106 309.6902133971177 1219.944356524023 309.6902133971177 1211.959493242773 317.91122169789895M1269.8883262505856 318.04891701039895C1261.9034629693356 326.26986427602395 1248.9681602349606 326.26986427602395 1240.9831138482418 318.04891701039895M1298.9120078912106 317.9238559752427C1290.9271446099606 309.70358009633645 1277.9917808404293 309.70358009633645 1270.0069175591793 317.9238559752427M1298.9281211724606 317.93795509633645C1306.9129844537106 326.15853615102395 1306.9129844537106 339.47616310414895 1298.9281211724606 347.6969272643052M1299.0038047662106 347.4710971861802C1291.019063555273 355.69186134633645 1291.019063555273 369.0089389830552 1299.0038047662106 377.2300083189927M1125.6134239068356 406.72140236196145C1133.597920977148 398.50118751821145 1133.597920977148 385.18307228383645 1125.6134239068356 376.96224708852395M1125.5746055474606 436.4104282408677C1117.5897422662106 428.1897251158677 1117.5897422662106 414.8723423033677 1125.5746055474606 406.65145607289895M1154.3936973443356 436.31979103383645C1146.4088340630856 444.53963966664895 1133.4732871880856 444.53963966664895 1125.4884239068356 436.31979103383645M1183.417501055273 436.1810581236802C1175.432637774023 427.9610874205552 1162.4972129693356 427.9610874205552 1154.5125938287106 436.1810581236802M1212.441182695898 436.3066684752427C1204.4564414849606 444.5273716002427 1191.521016680273 444.5273716002427 1183.5362754693356 436.3066684752427M1212.457295977148 436.2926303893052C1220.4420371880856 428.07162208852395 1220.4420371880856 414.7545444518052 1212.457295977148 406.53353615102395M1212.532979570898 406.7594272643052C1204.5482383599606 398.53890724477395 1204.5482383599606 385.22164650258645 1212.532979570898 377.0005161314927M1327.5975242486325 466.81289406118026C1319.6127220025387 458.59206886586765 1306.677266680273 458.59206886586765 1298.6925254693356 466.81289406118026M1356.4346824517575 466.8527500182115C1348.4498802056637 475.0736972838367 1335.5144554009762 475.0736972838367 1327.5295921197262 466.8527500182115M1356.3466087212887 437.1825229674302C1364.3313499322262 445.4029819518052 1364.3313499322262 458.7209140807114 1356.3466087212887 466.9406406432115M1356.2124534478512 407.30099220571145C1348.2275901666012 415.52218361196145 1348.2275901666012 428.83932228383645 1356.2124534478512 437.0603305846177M1356.3337913384762 377.42037697133645C1364.3187156548825 385.64071388539895 1364.3187156548825 398.9584018736802 1356.3337913384762 407.1784946471177M1356.3202415337887 377.40353126821145C1348.3353782525387 369.18295021352395 1335.3999534478512 369.18295021352395 1327.4150901666012 377.40353126821145M1327.6346946587887 377.32589454946145C1319.6497093072262 385.5460483580552 1306.714376055273 385.5460483580552 1298.729512774023 377.32589454946145M1269.6808067193356 556.4601108580553C1277.665547930273 548.2396518736803 1290.601094805273 548.2396518736803 1298.5858360162106 556.4601108580553M1240.843770586523 556.5002719908678C1248.8285117974606 564.7209140807115 1261.7639976373043 564.7209140807115 1269.748799883398 556.5002719908678M1240.931905352148 526.8297397643053C1232.947042070898 535.0504428893053 1232.947042070898 548.3679477721178 1240.931905352148 556.5887729674303M1241.0660606255856 496.9484531432116C1249.0508628716793 505.1693393736804 1249.0508628716793 518.4866611510242 1241.0660606255856 526.7077915221178M1240.9446616998043 467.067959979149C1232.959981524023 475.28847999868043 1232.959981524023 488.6061679869616 1240.9446616998043 496.8267490416491M1240.9583335748043 467.0512363463365C1248.9430747857418 458.83041115102395 1261.878438555273 458.83041115102395 1269.8631797662106 467.0512363463365M1269.643819414648 466.973233416649C1277.628682695898 475.1938144713367 1290.5641075005856 475.1938144713367 1298.5487876763668 466.973233416649M1327.7991233697262 646.3152133971178C1319.8143821587887 638.0952426939928 1306.8788047662106 638.0952426939928 1298.8941245904293 646.3152133971178M1356.6362815728512 646.356045916649C1348.6514182916012 654.5763217955553 1335.7159934869137 654.5763217955553 1327.7313743462887 646.356045916649M1356.54808577207 616.6854526549303C1364.5330100884762 624.905606463524 1364.5330100884762 638.2228061705553 1356.54808577207 646.443692401024M1356.4139304986325 586.8033725768053C1348.429189287695 595.0256626158678 1348.429189287695 608.3420688658678 1356.4139304986325 616.562344744774M1356.5353294244137 556.9223911314928C1364.5201927056637 565.143155291649 1364.5201927056637 578.4605991393053 1356.5353294244137 586.6810581236803M1356.5217796197262 556.9057895689928C1348.5369163384762 548.6858188658678 1335.6014915337887 548.6858188658678 1327.6168113580075 556.9057895689928M1327.8362327447262 556.8279087096178C1319.85130842832 565.0491001158678 1306.9159751763668 565.0491001158678 1298.9311118951168 556.8279087096178M1212.285665117773 675.8716098814928C1220.2704063287106 667.6506626158678 1220.2704063287106 654.3329135924303 1212.285665117773 646.113125994774M1212.246846758398 705.5605747252428C1204.261983477148 697.3398716002428 1204.261983477148 684.0219394713365 1212.246846758398 675.8014804869615M1241.0661216607418 705.4688999205553C1233.0811973443356 713.6909458189928 1220.1458946099606 713.6909458189928 1212.160909258398 705.4688999205553M1270.089864336523 705.331631854149C1262.1048789849606 697.111172869774 1249.169698320898 697.111172869774 1241.184835039648 705.331631854149M1299.1136680474606 705.456631854149C1291.1287437310543 713.676846697899 1278.1932578912106 713.676846697899 1270.2085777154293 705.456631854149M1299.129659258398 705.4430820494615C1307.114522539648 697.2219516783678 1307.114522539648 683.904141619774 1299.129659258398 675.6837436705553M1299.2054649224606 675.9093296080553C1291.2206626763668 667.6897251158678 1291.2206626763668 654.3719760924303 1299.2054649224606 646.1506015807115M1125.4115196099606 616.4522983580553C1133.3963828912106 624.6720249205553 1133.3963828912106 637.9898960143053 1125.4115196099606 646.2107212096178M1125.373311602148 586.7630893736803C1117.3880821099606 594.9836093932115 1117.3880821099606 608.3005649596178 1125.373311602148 616.5220005064928M1154.191915117773 586.8529331236803C1146.207295977148 578.6327182799303 1133.2718711724606 578.6327182799303 1125.287129961523 586.8529331236803M1183.215840899023 586.991299822899C1175.2308555474606 595.212735369774 1162.295674883398 595.212735369774 1154.311055742773 586.991299822899M1212.239766680273 586.8673374205553C1204.2550254693356 578.6456577330553 1191.3194785943356 578.6456577330553 1183.3346153130856 586.8673374205553M1212.255879961523 586.8807651549303C1220.2406211724606 595.101163104149 1220.2406211724606 608.4181186705553 1212.255879961523 616.6394321471178M1212.331563555273 616.4131137877428C1204.3468223443356 624.634610369774 1204.3468223443356 637.9522983580553 1212.331563555273 646.1727573424303" name="http://lore-mbp.local:3000/icons/black_kitty_1024x1024.jpg" id="6mpQSQKybb89T8M4M" type="complex_path" stroke="#4dc577" stroke-width="2" stroke-opacity="1" fill="#000000" fill-opacity="0" stroke-linejoin="round" stroke-linecap="round" opacity="1"/><g id="KLZYFD6qrb3tqYN9o" type="simpleGroup"></g></g></svg>