<svg width="1448" height="1024" xmlns="http://www.w3.org/2000/svg" xmlns:xlink="http://www.w3.org/1999/xlink" onload="init()" id="LHX2kpsqiag83DC2s"><script type="application/javascript"> <![CDATA[ 
function init(){}
 ]]> </script><g id="jrCvFnGRMMrwFLbqy" type="layer"><title>jrCvFnGRMMrwFLbqy</title><path d="M391.51345500333935,178.99995001309787 613.5134550033395,178.99995001309787 613.5134550033395,400.9999042367307 391.51345500333935,400.9999042367307 391.51345500333935,178.99995001309787ZM169.55496272428505,399.38427313321506 391.55495890958935,399.38427313321506 391.55495890958935,621.3842120980587 169.55496272428505,621.3842120980587 169.55496272428505,399.38427313321506ZM613.4719510970895,400.95846136563694 835.4719510970895,400.95846136563694 835.4719510970895,622.9583698129024 613.4719510970895,622.9583698129024 613.4719510970895,400.95846136563694ZM835.4304471908395,179.7870441293088 1057.4304471908356,179.7870441293088 1057.4304471908356,401.78698309415256 835.4304471908395,401.78698309415256 835.4304471908395,179.7870441293088ZM391.51345500333935,622.129878601965 613.5134550033395,622.129878601965 613.5134550033395,844.129878601965 391.51345500333935,844.129878601965 391.51345500333935,622.129878601965ZM835.4304471908395,622.9169269418087 1057.4304471908356,622.9169269418087 1057.4304471908356,844.9169269418087 835.4304471908395,844.9169269418087 835.4304471908395,622.9169269418087ZM1057.3889432845856,401.7455097054807 1279.3889432845854,401.7455097054807 1279.3889432845854,623.7454791879024 1057.3889432845856,623.7454791879024 1057.3889432845856,401.7455097054807Z" id="JFGLiiacbYQ77wbdh" type="simple_path" name="undefined" stroke="#000000" stroke-width="4" stroke-opacity="1" fill="#d45757" fill-opacity="0.1906180950580665" stroke-linejoin="miter" stroke-linecap="butt" opacity="1"/><path d="M391.9531404643095,252.6705328774944 391.9531404643095,277.21829288726 367.4058068661726,277.21829288726 367.4058068661726,252.6705328774944 391.9531404643095,252.6705328774944ZM367.5843957333601,228.12787693267023 367.5843957333601,252.67527836089283 343.03669866609937,252.67527836089283 343.03669866609937,228.12787693267023 367.5843957333601,228.12787693267023ZM367.410048809532,277.2137762856975 367.410048809532,301.76083439116627 342.8628095059431,301.76083439116627 342.8628095059431,277.2137762856975 367.410048809532,277.2137762856975ZM391.86616536665326,301.756622965385 391.86616536665326,326.3037115884319 367.318496075157,326.3037115884319 367.318496075157,301.756622965385 391.86616536665326,301.756622965385ZM342.95442327547437,252.6705328774944 342.95442327547437,277.21829288726 318.40702947664624,277.21829288726 318.40702947664624,252.6705328774944 342.95442327547437,252.6705328774944ZM342.8674481778181,301.756622965385 342.8674481778181,326.3037115884319 318.3199628262556,326.3037115884319 318.3199628262556,301.756622965385 342.8674481778181,301.756622965385ZM367.3230126767195,326.2989508462444 367.3230126767195,350.8467413735883 342.7757733731306,350.8467413735883 342.7757733731306,326.2989508462444 367.3230126767195,326.2989508462444ZM465.8370526700055,326.55429142241627 465.8370526700055,351.10250919585394 441.2896893887555,351.10250919585394 441.2896893887555,326.55429142241627 465.8370526700055,326.55429142241627ZM441.468278255943,302.01193302397877 441.468278255943,326.55914371733815 416.9211572079694,326.55914371733815 416.9211572079694,302.01193302397877 441.468278255943,302.01193302397877ZM441.29451116609926,351.0973212075727 441.29451116609926,375.6455237222211 416.7470849423444,375.6455237222211 416.7470849423444,351.0973212075727 441.29451116609926,351.0973212075727ZM465.74995550203676,375.64091556792425 465.74995550203676,400.1878821206586 441.202897396568,400.1878821206586 441.202897396568,375.64091556792425 465.74995550203676,375.64091556792425ZM416.8385766415631,326.55429142241627 416.8385766415631,351.10250919585394 392.29097002435094,351.10250919585394 392.29097002435094,326.55429142241627 416.8385766415631,326.55429142241627ZM416.7514794735944,375.64091556792425 416.7514794735944,400.1878821206586 392.20430013227826,400.1878821206586 392.20430013227826,375.64091556792425 416.7514794735944,375.64091556792425ZM441.20735296297426,400.1837927651899 441.20735296297426,424.7309119058149 416.6597436337506,424.7309119058149 416.6597436337506,400.1837927651899 441.20735296297426,400.1837927651899ZM392.20430013227826,179.30867832427185 416.7514794735944,179.30867832427185 416.7514794735944,203.8562857461469 392.20430013227826,203.8562857461469 392.20430013227826,179.30867832427185ZM367.66111692476636,203.6776205850141 392.2087859182394,203.6776205850141 392.2087859182394,228.22478550200617 367.66111692476636,228.22478550200617 367.66111692476636,203.6776205850141ZM416.7470849423444,203.85138767485785 441.29451116609926,203.85138767485785 441.29451116609926,228.39897983794367 416.7470849423444,228.39897983794367 416.7470849423444,203.85138767485785ZM441.2896893887555,179.39585178618591 465.8370526700055,179.39585178618591 465.8370526700055,203.9430777383344 441.2896893887555,203.9430777383344 441.2896893887555,179.39585178618591ZM392.20430013227826,228.30748813872492 416.7514794735944,228.30748813872492 416.7514794735944,252.8549811196819 392.20430013227826,252.8549811196819 392.20430013227826,228.30748813872492ZM441.2896893887555,228.39458530669367 465.8370526700055,228.39458530669367 465.8370526700055,252.9416052651897 441.2896893887555,252.9416052651897 441.2896893887555,228.39458530669367ZM465.832780209068,203.93859165435003 490.38040288973207,203.93859165435003 490.38040288973207,228.48626011138117 465.832780209068,228.48626011138117 465.832780209068,203.93859165435003ZM539.4499219327008,179.56958835845154 563.9977124600446,179.56958835845154 563.9977124600446,204.11718052153748 539.4499219327008,204.11718052153748 539.4499219327008,179.56958835845154ZM514.9076856045758,203.93859165435003 539.4546826748883,203.93859165435003 539.4546826748883,228.48621433501398 514.9076856045758,228.48621433501398 514.9076856045758,203.93859165435003ZM563.9929517178571,204.11267917876404 588.5400708584821,204.11267917876404 588.5400708584821,228.65981357817805 563.9929517178571,228.65981357817805 563.9929517178571,204.11267917876404ZM588.5364087491071,179.65679233794373 613.0832227139508,179.65679233794373 613.0832227139508,204.2044150186078 588.5364087491071,204.2044150186078 588.5364087491071,179.65679233794373ZM539.4499219327008,228.56829136138117 563.9977124600446,228.56829136138117 563.9977124600446,253.11578434233815 539.4499219327008,253.11578434233815 539.4499219327008,228.56829136138117ZM588.5364087491071,228.6553580117718 613.0832227139508,228.6553580117718 613.0832227139508,253.2030798745647 588.5364087491071,253.2030798745647 588.5364087491071,228.6553580117718ZM613.0789502530133,204.19956272368591 637.6263745694196,204.19956272368591 637.6263745694196,228.74688022856867 613.0789502530133,228.74688022856867 613.0789502530133,204.19956272368591ZM686.7063916592633,253.45399540190846 686.7063916592633,278.00152652983815 662.1587842373883,278.00152652983815 662.1587842373883,253.45399540190846 686.7063916592633,253.45399540190846ZM662.3380444912946,228.91098850493586 662.3380444912946,253.45831363921315 637.7898877530133,253.45831363921315 637.7898877530133,228.91098850493586 662.3380444912946,228.91098850493586ZM662.1640942959821,277.9965826821819 662.1640942959821,302.54388492827565 637.6165479092633,302.54388492827565 637.6165479092633,277.9965826821819 662.1640942959821,277.9965826821819ZM686.6194775967633,302.53997867827565 686.6194775967633,327.0867926431194 662.0715649991071,327.0867926431194 662.0715649991071,302.53997867827565 686.6194775967633,302.53997867827565ZM637.7076733975446,253.45399540190846 637.7076733975446,278.00152652983815 613.1608594327008,278.00152652983815 613.1608594327008,253.45399540190846 637.7076733975446,253.45399540190846ZM637.6208203702008,302.53997867827565 637.6208203702008,327.0867926431194 613.0737622647321,327.0867926431194 613.0737622647321,302.53997867827565 637.6208203702008,302.53997867827565ZM662.0763257412946,327.08261173491627 662.0763257412946,351.63024967436957 637.5292676358258,351.63024967436957 637.5292676358258,327.08261173491627 662.0763257412946,327.08261173491627ZM465.565934505943,252.93194645171315 490.11331304598207,252.93194645171315 490.11331304598207,277.47909610991627 465.565934505943,277.47909610991627 465.565934505943,252.93194645171315ZM441.0233319668805,277.3007819009319 465.57087835359926,277.3007819009319 465.57087835359926,301.8477789712444 441.0233319668805,301.8477789712444 441.0233319668805,277.3007819009319ZM490.1093457608258,277.4748541665569 514.6560376553571,277.4748541665569 514.6560376553571,302.02191227202565 490.1093457608258,302.02191227202565 490.1093457608258,277.4748541665569ZM514.6521314053571,253.01896732573658 539.1994946866071,253.01896732573658 539.1994946866071,277.56597965483815 514.6521314053571,277.56597965483815 514.6521314053571,253.01896732573658ZM465.565934505943,301.93011539702565 490.11331304598207,301.93011539702565 490.11331304598207,326.4781805825725 465.565934505943,326.4781805825725 465.565934505943,301.93011539702565ZM514.6521314053571,302.017365152885 539.1994946866071,302.017365152885 539.1994946866071,326.56500309233815 514.6521314053571,326.56500309233815 514.6521314053571,302.017365152885ZM539.1943677334821,277.56204288726 563.7425855069196,277.56204288726 563.7425855069196,302.1093756509319 539.1943677334821,302.1093756509319 539.1943677334821,277.56204288726ZM613.3446362881696,326.55429142241627 613.3446362881696,351.10250919585394 588.7972119717633,351.10250919585394 588.7972119717633,326.55429142241627 613.3446362881696,326.55429142241627ZM588.9758618741071,302.01193302397877 588.9758618741071,326.55914371733815 564.4286206631696,326.55914371733815 564.4286206631696,302.01193302397877 588.9758618741071,302.01193302397877ZM588.8013013272321,351.0973212075727 588.8013013272321,375.6455237222211 564.2546094327008,375.6455237222211 564.2546094327008,351.0973212075727 588.8013013272321,351.0973212075727ZM613.2577222256696,375.64091556792425 613.2577222256696,400.1878821206586 588.7104199795758,400.1878821206586 588.7104199795758,375.64091556792425 613.2577222256696,375.64091556792425ZM564.3454907803571,326.55429142241627 564.3454907803571,351.10250919585394 539.7986157803571,351.10250919585394 539.7986157803571,326.55429142241627 564.3454907803571,326.55429142241627ZM564.2583325772321,375.64091556792425 564.2583325772321,400.1878821206586 539.7112134366071,400.1878821206586 539.7112134366071,375.64091556792425 564.2583325772321,375.64091556792425ZM588.7143872647321,400.1837927651899 588.7143872647321,424.7309119058149 564.1673901944196,424.7309119058149 564.1673901944196,400.1837927651899 588.7143872647321,400.1837927651899Z" id="GxpEqTh52GzN8rHsr" type="simple_path" name="undefined" stroke="#000000" stroke-width="4" stroke-opacity="1" fill="#55c029" fill-opacity="0.1906180950580665" stroke-linejoin="miter" stroke-linecap="butt" opacity="1"/><path d="M391,179 1057,179 1057,845 391,845 391,179Z" id="qGMcwsroR7ZyzsnpJ" type="simple_path" name="undefined" stroke="#000000" stroke-width="4" stroke-opacity="1" fill="#000000" fill-opacity="0" stroke-linejoin="miter" stroke-linecap="butt" opacity="1"/><path d="M390.7621765136719,400.01397705078125 390.7621765136719,474.0194091796875 316.7566833496094,474.0194091796875 316.7566833496094,400.01397705078125 390.7621765136719,400.01397705078125M317.2952575683594,326.02227783203125 317.2952575683594,400.0277099609375 243.28964233398438,400.0277099609375 243.28964233398438,326.02227783203125 317.2952575683594,326.02227783203125M316.7704772949219,474.00567626953125 316.7704772949219,548.0111083984375 242.76498413085938,548.0111083984375 242.76498413085938,474.00567626953125 316.7704772949219,474.00567626953125M390.4997253417969,547.997314453125 390.4997253417969,622.0028686523438 316.4942321777344,622.0028686523438 316.4942321777344,547.997314453125 390.4997253417969,547.997314453125M243.04135131835938,400.01397705078125 243.04135131835938,474.0194091796875 169.03585815429688,474.0194091796875 169.03585815429688,400.01397705078125 243.04135131835938,400.01397705078125M242.77890014648438,547.997314453125 242.77890014648438,622.0028686523438 168.77340698242188,622.0028686523438 168.77340698242188,547.997314453125 242.77890014648438,547.997314453125M316.5080261230469,621.9890747070312 316.5080261230469,695.9944458007812 242.50253295898438,695.9944458007812 242.50253295898438,621.9890747070312 316.5080261230469,621.9890747070312M613.5077514648438,622.759521484375 613.5077514648438,696.7649536132812 539.5022583007812,696.7649536132812 539.5022583007812,622.759521484375 613.5077514648438,622.759521484375M540.0408325195312,548.767822265625 540.0408325195312,622.7732543945312 466.0352478027344,622.7732543945312 466.0352478027344,548.767822265625 540.0408325195312,548.767822265625M539.5160522460938,696.751220703125 539.5160522460938,770.7566528320312 465.5105895996094,770.7566528320312 465.5105895996094,696.751220703125 539.5160522460938,696.751220703125M613.2451782226562,770.7428588867188 613.2451782226562,844.7484130859375 539.2398071289062,844.7484130859375 539.2398071289062,770.7428588867188 613.2451782226562,770.7428588867188M465.7869567871094,622.759521484375 465.7869567871094,696.7649536132812 391.7814636230469,696.7649536132812 391.7814636230469,622.759521484375 465.7869567871094,622.759521484375M465.5245056152344,770.7428588867188 465.5245056152344,844.7484130859375 391.5190124511719,844.7484130859375 391.5190124511719,770.7428588867188 465.5245056152344,770.7428588867188M539.2536010742188,844.734619140625 539.2536010742188,918.739990234375 465.2481384277344,918.739990234375 465.2481384277344,844.734619140625 539.2536010742188,844.734619140625M391.5190124511719,178.84255981445312 465.5243835449219,178.84255981445312 465.5243835449219,252.84803771972656 391.5190124511719,252.84803771972656 391.5190124511719,178.84255981445312M317.5273132324219,252.3094940185547 391.5326843261719,252.3094940185547 391.5326843261719,326.3150939941406 317.5273132324219,326.3150939941406 317.5273132324219,252.3094940185547M465.5107116699219,252.8342742919922 539.5160522460938,252.8342742919922 539.5160522460938,326.83978271484375 465.5107116699219,326.83978271484375 465.5107116699219,252.8342742919922M539.5022583007812,179.1050567626953 613.5077514648438,179.1050567626953 613.5077514648438,253.1105499267578 539.5022583007812,253.1105499267578 539.5022583007812,179.1050567626953M391.5190124511719,326.5633850097656 465.5243835449219,326.5633850097656 465.5243835449219,400.5689697265625 391.5190124511719,400.5689697265625 391.5190124511719,326.5633850097656M539.5022583007812,326.825927734375 613.5077514648438,326.825927734375 613.5077514648438,400.83135986328125 539.5022583007812,400.83135986328125 539.5022583007812,326.825927734375M613.4940795898438,253.0967254638672 687.4994506835938,253.0967254638672 687.4994506835938,327.102294921875 613.4940795898438,327.102294921875 613.4940795898438,253.0967254638672M835.4359741210938,179.62965393066406 909.4413452148438,179.62965393066406 909.4413452148438,253.6351318359375 835.4359741210938,253.6351318359375 835.4359741210938,179.62965393066406M761.4442749023438,253.09658813476562 835.4496459960938,253.09658813476562 835.4496459960938,327.1021728515625 761.4442749023438,327.1021728515625 761.4442749023438,253.09658813476562M909.4276733398438,253.62136840820312 983.4330444335938,253.62136840820312 983.4330444335938,327.6268615722656 909.4276733398438,327.6268615722656 909.4276733398438,253.62136840820312M983.4192504882812,179.89215087890625 1057.4249267578125,179.89215087890625 1057.4249267578125,253.89764404296875 983.4192504882812,253.89764404296875 983.4192504882812,179.89215087890625M835.4359741210938,327.3504638671875 909.4413452148438,327.3504638671875 909.4413452148438,401.3560485839844 835.4359741210938,401.3560485839844 835.4359741210938,327.3504638671875M983.4192504882812,327.6130065917969 1057.4249267578125,327.6130065917969 1057.4249267578125,401.6184387207031 983.4192504882812,401.6184387207031 983.4192504882812,327.6130065917969M1057.4110107421875,253.88381958007812 1131.4163818359375,253.88381958007812 1131.4163818359375,327.8893737792969 1057.4110107421875,327.8893737792969 1057.4110107421875,253.88381958007812M1279.3834228515625,402.3752136230469 1279.3834228515625,476.3806457519531 1205.3778076171875,476.3806457519531 1205.3778076171875,402.3752136230469 1279.3834228515625,402.3752136230469M1205.9163818359375,328.3835144042969 1205.9163818359375,402.3889465332031 1131.9107666015625,402.3889465332031 1131.9107666015625,328.3835144042969 1205.9163818359375,328.3835144042969M1205.3914794921875,476.3669128417969 1205.3914794921875,550.3723754882812 1131.3861083984375,550.3723754882812 1131.3861083984375,476.3669128417969 1205.3914794921875,476.3669128417969M1279.1207275390625,550.3585815429688 1279.1207275390625,624.3641357421875 1205.1153564453125,624.3641357421875 1205.1153564453125,550.3585815429688 1279.1207275390625,550.3585815429688M1131.6624755859375,402.3752136230469 1131.6624755859375,476.3806457519531 1057.6568603515625,476.3806457519531 1057.6568603515625,402.3752136230469 1131.6624755859375,402.3752136230469M1131.4000244140625,550.3585815429688 1131.4000244140625,624.3641357421875 1057.3946533203125,624.3641357421875 1057.3946533203125,550.3585815429688 1131.4000244140625,550.3585815429688M1205.1292724609375,624.350341796875 1205.1292724609375,698.355712890625 1131.1236572265625,698.355712890625 1131.1236572265625,624.350341796875 1205.1292724609375,624.350341796875M612.6903686523438,400.80108642578125 686.6957397460938,400.80108642578125 686.6957397460938,474.8065490722656 612.6903686523438,474.8065490722656 612.6903686523438,400.80108642578125M538.6986694335938,474.26800537109375 612.7040405273438,474.26800537109375 612.7040405273438,548.2736206054688 538.6986694335938,548.2736206054688 538.6986694335938,474.26800537109375M686.6820678710938,474.79278564453125 760.6875610351562,474.79278564453125 760.6875610351562,548.7982788085938 686.6820678710938,548.7982788085938 686.6820678710938,474.79278564453125M760.6737670898438,401.0635681152344 834.6792602539062,401.0635681152344 834.6792602539062,475.0690612792969 760.6737670898438,475.0690612792969 760.6737670898438,401.0635681152344M612.6903686523438,548.5219116210938 686.6957397460938,548.5219116210938 686.6957397460938,622.5274658203125 612.6903686523438,622.5274658203125 612.6903686523438,548.5219116210938M760.6737670898438,548.784423828125 834.6792602539062,548.784423828125 834.6792602539062,622.7898559570312 760.6737670898438,622.7898559570312 760.6737670898438,548.784423828125M834.6654663085938,475.05523681640625 908.6708374023438,475.05523681640625 908.6708374023438,549.060791015625 834.6654663085938,549.060791015625 834.6654663085938,475.05523681640625M1058.2117919921875,622.759521484375 1058.2117919921875,696.7649536132812 984.2063598632812,696.7649536132812 984.2063598632812,622.759521484375 1058.2117919921875,622.759521484375M984.7449340820312,548.767822265625 984.7449340820312,622.7732543945312 910.7393188476562,622.7732543945312 910.7393188476562,548.767822265625 984.7449340820312,548.767822265625M984.2201538085938,696.751220703125 984.2201538085938,770.7566528320312 910.2146606445312,770.7566528320312 910.2146606445312,696.751220703125 984.2201538085938,696.751220703125M1057.9493408203125,770.7428588867188 1057.9493408203125,844.7484130859375 983.9439086914062,844.7484130859375 983.9439086914062,770.7428588867188 1057.9493408203125,770.7428588867188M910.4910278320312,622.759521484375 910.4910278320312,696.7649536132812 836.4855346679688,696.7649536132812 836.4855346679688,622.759521484375 910.4910278320312,622.759521484375M910.2285766601562,770.7428588867188 910.2285766601562,844.7484130859375 836.2230834960938,844.7484130859375 836.2230834960938,770.7428588867188 910.2285766601562,770.7428588867188M983.9577026367188,844.734619140625 983.9577026367188,918.739990234375 909.9522094726562,918.739990234375 909.9522094726562,844.734619140625 983.9577026367188,844.734619140625" id="jBqnLZA389jJvQHkY" type="simple_path" name="undefined" stroke="#000000" stroke-width="4" stroke-opacity="1" fill="#3ea089" fill-opacity="0.1906180950580665" stroke-linejoin="miter" stroke-linecap="butt" opacity="1"/><path d="M1205.9317089787462,402.39904754662143 1181.3839794865587,402.39904754662143 1181.3839794865587,377.85168426537143 1205.9317089787462,377.85168426537143 1205.9317089787462,402.39904754662143ZM1230.4743115178087,378.03027313255893 1205.9269482365587,378.03027313255893 1205.9269482365587,353.4826046755277 1230.4743115178087,353.4826046755277 1230.4743115178087,378.03027313255893ZM1181.3884960881212,377.85595672630893 1156.8413769474962,377.85595672630893 1156.8413769474962,353.30871551537143 1181.3884960881212,353.30871551537143 1181.3884960881212,377.85595672630893ZM1156.8456494084337,402.3120724489652 1132.2985302678087,402.3120724489652 1132.2985302678087,377.76440399193393 1156.8456494084337,377.76440399193393 1156.8456494084337,402.3120724489652ZM1205.9317089787462,353.4003292849027 1181.3839794865587,353.4003292849027 1181.3839794865587,328.85290496849643 1205.9317089787462,328.85290496849643 1205.9317089787462,353.4003292849027ZM1156.8456494084337,353.31335418724643 1132.2985302678087,353.31335418724643 1132.2985302678087,328.76586883568393 1156.8456494084337,328.76586883568393 1156.8456494084337,353.31335418724643ZM1132.3032910099962,377.76892059349643 1107.7554394474962,377.76892059349643 1107.7554394474962,353.22167938255893 1132.3032910099962,353.22167938255893 1132.3032910099962,377.76892059349643ZM1132.0479199162462,476.2829281618558 1107.4997021428087,476.2829281618558 1107.4997021428087,451.7355343630277 1132.0479199162462,451.7355343630277 1132.0479199162462,476.2829281618558ZM1156.5902783146837,451.91418426537143 1132.0430371037462,451.91418426537143 1132.0430371037462,427.36706512474643 1156.5902783146837,427.36706512474643 1156.5902783146837,451.91418426537143ZM1107.5049511662462,451.7404171755277 1082.9567333928087,451.7404171755277 1082.9567333928087,427.1929318239652 1107.5049511662462,427.1929318239652 1107.5049511662462,451.7404171755277ZM1082.9612499943712,476.19583099388706 1058.4143749943712,476.19583099388706 1058.4143749943712,451.64880340599643 1082.9612499943712,451.64880340599643 1082.9612499943712,476.19583099388706ZM1132.0479199162462,427.2844845583402 1107.4997021428087,427.2844845583402 1107.4997021428087,402.7368771364652 1132.0479199162462,402.7368771364652 1132.0479199162462,427.2844845583402ZM1082.9612499943712,427.19738739037143 1058.4143749943712,427.19738739037143 1058.4143749943712,402.6502072145902 1082.9612499943712,402.6502072145902 1082.9612499943712,427.19738739037143ZM1058.4184033146837,451.65319793724643 1033.8712841740587,451.65319793724643 1033.8712841740587,427.1056515505277 1058.4184033146837,427.1056515505277 1058.4184033146837,451.65319793724643ZM1279.2935253849962,402.6502072145902 1279.2935253849962,427.19738739037143 1254.7459179631212,427.19738739037143 1254.7459179631212,402.6502072145902 1279.2935253849962,402.6502072145902ZM1254.9246289006212,378.1069943239652 1254.9246289006212,402.65466278099643 1230.3773876896837,402.65466278099643 1230.3773876896837,378.1069943239652 1254.9246289006212,378.1069943239652ZM1254.7508007756212,427.1929318239652 1254.7508007756212,451.7404171755277 1230.2031933537462,451.7404171755277 1230.2031933537462,427.1929318239652 1254.7508007756212,427.1929318239652ZM1279.2063671818712,451.7355343630277 1279.2063671818712,476.2829281618558 1254.6591259709337,476.2829281618558 1254.6591259709337,451.7355343630277 1279.2063671818712,451.7355343630277ZM1230.2947460881212,402.6502072145902 1230.2947460881212,427.19738739037143 1205.7472607365587,427.19738739037143 1205.7472607365587,402.6502072145902 1230.2947460881212,402.6502072145902ZM1230.2075878849962,451.7355343630277 1230.2075878849962,476.2829281618558 1205.6605908146837,476.2829281618558 1205.6605908146837,451.7355343630277 1230.2075878849962,451.7355343630277ZM1254.6636425724962,476.27859466576206 1254.6636425724962,500.8262631227933 1230.1159130803087,500.8262631227933 1230.1159130803087,476.27859466576206 1254.6636425724962,476.27859466576206ZM1279.0326611271837,549.8957821657621 1279.0326611271837,574.4435726931058 1254.4850537053087,574.4435726931058 1254.4850537053087,549.8957821657621 1279.0326611271837,549.8957821657621ZM1254.6636425724962,525.3535458376371 1254.6636425724962,549.9005429079496 1230.1160351506212,549.9005429079496 1230.1160351506212,525.3535458376371 1254.6636425724962,525.3535458376371ZM1254.4895703068712,574.4388119509183 1254.4895703068712,598.9859310915433 1229.9423290959337,598.9859310915433 1229.9423290959337,574.4388119509183 1254.4895703068712,574.4388119509183ZM1278.9453808537462,598.9822689821683 1278.9453808537462,623.5290829470121 1254.3977734318712,623.5290829470121 1254.3977734318712,598.9822689821683 1278.9453808537462,598.9822689821683ZM1230.0338818303087,549.8957821657621 1230.0338818303087,574.4435726931058 1205.4863964787462,574.4435726931058 1205.4863964787462,549.8957821657621 1230.0338818303087,549.8957821657621ZM1229.9468456974962,598.9822689821683 1229.9468456974962,623.5290829470121 1205.3991162053087,623.5290829470121 1205.3991162053087,598.9822689821683 1229.9468456974962,598.9822689821683ZM1254.4026562443712,623.5248104860746 1254.4026562443712,648.0722348024808 1229.8552929631212,648.0722348024808 1229.8552929631212,623.5248104860746 1254.4026562443712,623.5248104860746ZM1205.1482617131212,697.1522518923246 1180.6006542912462,697.1522518923246 1180.6006542912462,672.6046444704496 1205.1482617131212,672.6046444704496 1205.1482617131212,697.1522518923246ZM1229.6912304631212,672.7839047243558 1205.1438671818712,672.7839047243558 1205.1438671818712,648.2357479860746 1229.6912304631212,648.2357479860746 1229.6912304631212,672.7839047243558ZM1180.6056591740587,672.6099545290433 1156.0582958928087,672.6099545290433 1156.0582958928087,648.0624081423246 1180.6056591740587,648.0624081423246 1180.6056591740587,672.6099545290433ZM1156.0622021428087,697.0653378298246 1131.5154492131212,697.0653378298246 1131.5154492131212,672.5174252321683 1156.0622021428087,672.5174252321683 1156.0622021428087,697.0653378298246ZM1205.1482617131212,648.1535336306058 1180.6006542912462,648.1535336306058 1180.6006542912462,623.6067196657621 1205.1482617131212,623.6067196657621 1205.1482617131212,648.1535336306058ZM1156.0622021428087,648.0666806032621 1131.5154492131212,648.0666806032621 1131.5154492131212,623.5196224977933 1156.0622021428087,623.5196224977933 1156.0622021428087,648.0666806032621ZM1131.5195996037462,672.5221859743558 1106.9719921818712,672.5221859743558 1106.9719921818712,647.9751278688871 1131.5195996037462,647.9751278688871 1131.5195996037462,672.5221859743558ZM1205.6702343693712,476.0118099977933 1205.6702343693712,500.5591732790433 1181.1231152287462,500.5591732790433 1181.1231152287462,476.0118099977933 1205.6702343693712,476.0118099977933ZM1181.3014599553087,451.4691769411527 1181.3014599553087,476.01675384544956 1156.7544628849962,476.01675384544956 1156.7544628849962,451.4691769411527 1181.3014599553087,451.4691769411527ZM1181.1273876896837,500.55520599388706 1181.1273876896837,525.1018978884183 1156.5802685490587,525.1018978884183 1156.5802685490587,500.55520599388706 1181.1273876896837,500.55520599388706ZM1205.5831982365587,525.0979916384183 1205.5831982365587,549.6453549196683 1181.0362011662462,549.6453549196683 1181.0362011662462,525.0979916384183 1205.5831982365587,525.0979916384183ZM1156.6720654240587,476.0118099977933 1156.6720654240587,500.5591732790433 1132.1240917912462,500.5591732790433 1132.1240917912462,476.0118099977933 1156.6720654240587,476.0118099977933ZM1156.5849072209337,525.0979916384183 1156.5849072209337,549.6453549196683 1132.0371777287462,549.6453549196683 1132.0371777287462,525.0979916384183 1156.5849072209337,525.0979916384183ZM1181.0402294865587,549.6402279665433 1181.0402294865587,574.1884457399808 1156.4928662053087,574.1884457399808 1156.4928662053087,549.6402279665433 1181.0402294865587,549.6402279665433ZM1132.0479199162462,623.7904965212308 1107.4997021428087,623.7904965212308 1107.4997021428087,599.2430722048246 1132.0479199162462,599.2430722048246 1132.0479199162462,623.7904965212308ZM1156.5902783146837,599.4217221071683 1132.0430371037462,599.4217221071683 1132.0430371037462,574.8744808962308 1156.5902783146837,574.8744808962308 1156.5902783146837,599.4217221071683ZM1107.5049511662462,599.2471615602933 1082.9567333928087,599.2471615602933 1082.9567333928087,574.7004696657621 1107.5049511662462,574.7004696657621 1107.5049511662462,599.2471615602933ZM1082.9612499943712,623.7035824587308 1058.4143749943712,623.7035824587308 1058.4143749943712,599.1562802126371 1082.9612499943712,599.1562802126371 1082.9612499943712,623.7035824587308ZM1132.0479199162462,574.7913510134183 1107.4997021428087,574.7913510134183 1107.4997021428087,550.2444760134183 1132.0479199162462,550.2444760134183 1132.0479199162462,574.7913510134183ZM1082.9612499943712,574.7041928102933 1058.4143749943712,574.7041928102933 1058.4143749943712,550.1570736696683 1082.9612499943712,550.1570736696683 1082.9612499943712,574.7041928102933ZM1058.4184033146837,599.1602474977933 1033.8712841740587,599.1602474977933 1033.8712841740587,574.6132504274808 1058.4184033146837,574.6132504274808 1058.4184033146837,599.1602474977933Z" id="P2hhsNk6BuYvRaJJy" type="simple_path" name="undefined" stroke="#000000" stroke-width="4" stroke-opacity="1" fill="#55c029" fill-opacity="0.1906180950580665" stroke-linejoin="miter" stroke-linecap="butt" opacity="1"/><path d="M613.9116987130176,549.71490372959 613.9116987130176,525.1672352725587 589.3643354317676,525.1672352725587 589.3643354317676,549.71490372959 613.9116987130176,549.71490372959ZM589.5429242989551,574.2575673038087 589.5429242989551,549.7102040225587 564.9952558419238,549.7102040225587 564.9952558419238,574.2575673038087 589.5429242989551,574.2575673038087ZM589.3686078927051,525.1717518741212 589.3686078927051,500.62463273349624 564.8213666817676,500.62463273349624 564.8213666817676,525.1717518741212 589.3686078927051,525.1717518741212ZM613.8247236153613,500.62890519443374 613.8247236153613,476.08178605380874 589.2770551583301,476.08178605380874 589.2770551583301,500.62890519443374 613.8247236153613,500.62890519443374ZM564.9129804512988,549.71490372959 564.9129804512988,525.1672352725587 540.3655561348926,525.1672352725587 540.3655561348926,549.71490372959 564.9129804512988,549.71490372959ZM564.8260053536426,500.62890519443374 564.8260053536426,476.08178605380874 540.2785200020801,476.08178605380874 540.2785200020801,500.62890519443374 564.8260053536426,500.62890519443374ZM589.2815717598926,476.08654679599624 589.2815717598926,451.53872575107437 564.7343305489551,451.53872575107437 564.7343305489551,476.08654679599624 589.2815717598926,476.08654679599624ZM687.7956098458301,475.8312367374025 687.7956098458301,451.28298844638687 663.2481855294238,451.28298844638687 663.2481855294238,475.8312367374025 687.7956098458301,475.8312367374025ZM663.4268354317676,500.37359513584 663.4268354317676,475.82629288974624 638.8797162911426,475.82629288974624 638.8797162911426,500.37359513584 663.4268354317676,500.37359513584ZM663.2530683419238,451.2881764346681 663.2530683419238,426.7399586612306 638.7055829903613,426.7399586612306 638.7055829903613,451.2881764346681 663.2530683419238,451.2881764346681ZM687.7085126778613,426.74453629794937 687.7085126778613,402.1976002627931 663.1614545723926,402.1976002627931 663.1614545723926,426.74453629794937 687.7085126778613,426.74453629794937ZM638.7971357247363,475.8312367374025 638.7971357247363,451.28298844638687 614.2495283028613,451.28298844638687 614.2495283028613,475.8312367374025 638.7971357247363,475.8312367374025ZM638.7100385567676,426.74453629794937 638.7100385567676,402.1976002627931 614.1628583809863,402.1976002627931 614.1628583809863,426.74453629794937 638.7100385567676,426.74453629794937ZM663.1658491036426,402.20168961826187 663.1658491036426,377.65457047763687 638.6183027169238,377.65457047763687 638.6183027169238,402.20168961826187 663.1658491036426,402.20168961826187ZM614.1628583809863,623.0767811709962 638.7100385567676,623.0767811709962 638.7100385567676,598.5291737491212 614.1628583809863,598.5291737491212 614.1628583809863,623.0767811709962ZM589.6196454903613,598.7078846866212 614.1673139473926,598.7078846866212 614.1673139473926,574.1606434756837 589.6196454903613,574.1606434756837 589.6196454903613,598.7078846866212ZM638.7055829903613,598.5341175967775 663.2530683419238,598.5341175967775 663.2530683419238,573.9864491397462 638.7055829903613,573.9864491397462 638.7055829903613,598.5341175967775ZM663.2481855294238,622.9896229678712 687.7956098458301,622.9896229678712 687.7956098458301,598.4423817569337 663.2481855294238,598.4423817569337 663.2481855294238,622.9896229678712ZM614.1628583809863,574.077940838965 638.7100385567676,574.077940838965 638.7100385567676,549.5305165225587 614.1628583809863,549.5305165225587 614.1628583809863,574.077940838965ZM663.2481855294238,573.9908436709962 687.7956098458301,573.9908436709962 687.7956098458301,549.4438466006837 663.2481855294238,549.4438466006837 663.2481855294238,573.9908436709962ZM687.7912763497363,598.44683732334 712.3389448067676,598.44683732334 712.3389448067676,573.8991688663087 687.7912763497363,573.8991688663087 687.7912763497363,598.44683732334ZM761.4084943673145,622.8159169131837 785.9562848946582,622.8159169131837 785.9562848946582,598.2683094913087 761.4084943673145,598.2683094913087 761.4084943673145,622.8159169131837ZM736.8662580391895,598.44683732334 761.413255109502,598.44683732334 761.413255109502,573.8992909366212 736.8662580391895,573.8992909366212 736.8662580391895,598.44683732334ZM785.9515241524707,598.2728260928712 810.4986432930957,598.2728260928712 810.4986432930957,573.72564591709 785.9515241524707,573.72564591709 785.9515241524707,598.2728260928712ZM810.4949811837207,622.7286366397462 835.0417951485645,622.7286366397462 835.0417951485645,598.1810292178712 810.4949811837207,598.1810292178712 810.4949811837207,622.7286366397462ZM761.4084943673145,573.8171376163087 785.9562848946582,573.8171376163087 785.9562848946582,549.2697132999025 761.4084943673145,549.2697132999025 761.4084943673145,573.8171376163087ZM810.4949811837207,573.7301014834962 835.0417951485645,573.7301014834962 835.0417951485645,549.182433026465 810.4949811837207,549.182433026465 810.4949811837207,573.7301014834962ZM835.037522687627,598.1859120303712 859.5849470040332,598.1859120303712 859.5849470040332,573.6385487491212 835.037522687627,573.6385487491212 835.037522687627,598.1859120303712ZM908.664964093877,548.9315174991212 908.664964093877,524.3839100772462 884.117356672002,524.3839100772462 884.117356672002,548.9315174991212 908.664964093877,548.9315174991212ZM884.2966169259082,573.4744862491212 884.2966169259082,548.9271229678712 859.748460187627,548.9271229678712 859.748460187627,573.4744862491212 884.2966169259082,573.4744862491212ZM884.1226667305957,524.3889149600587 884.1226667305957,499.841612713965 859.575120343877,499.841612713965 859.575120343877,524.3889149600587 884.1226667305957,524.3889149600587ZM908.578050031377,499.84545792880874 908.578050031377,475.29870499912124 884.0301374337207,475.29870499912124 884.0301374337207,499.84545792880874 908.578050031377,499.84545792880874ZM859.6662458321582,548.9315174991212 859.6662458321582,524.3839100772462 835.1194318673145,524.3839100772462 835.1194318673145,548.9315174991212 859.6662458321582,548.9315174991212ZM859.5793928048145,499.84545792880874 859.5793928048145,475.29870499912124 835.0323346993457,475.29870499912124 835.0323346993457,499.84545792880874 859.5793928048145,499.84545792880874ZM884.0348981759082,475.3029164249025 884.0348981759082,450.7552174502931 859.4878400704395,450.7552174502931 859.4878400704395,475.3029164249025 884.0348981759082,475.3029164249025ZM687.5244916817676,549.4534901553712 712.0718549630176,549.4534901553712 712.0718549630176,524.9063710147462 687.5244916817676,524.9063710147462 687.5244916817676,549.4534901553712ZM662.9818281075488,525.0847157413087 687.5294355294238,525.0847157413087 687.5294355294238,500.53771867099624 662.9818281075488,500.53771867099624 662.9818281075488,525.0847157413087ZM712.0678876778613,524.9105824405275 736.6146100899707,524.9105824405275 736.6146100899707,500.36352433505874 712.0678876778613,500.36352433505874 712.0678876778613,524.9105824405275ZM736.6107038399707,549.366515057715 761.1580671212207,549.366515057715 761.1580671212207,524.8195179874025 736.6107038399707,524.8195179874025 736.6107038399707,549.366515057715ZM687.5244916817676,500.45532121005874 712.0718549630176,500.45532121005874 712.0718549630176,475.90734757724624 687.5244916817676,475.90734757724624 687.5244916817676,500.45532121005874ZM736.6107038399707,500.36816300693374 761.1580671212207,500.36816300693374 761.1580671212207,475.82043351474624 736.6107038399707,475.82043351474624 736.6107038399707,500.36816300693374ZM761.1529401680957,524.8234852725587 785.7011579415332,524.8234852725587 785.7011579415332,500.27612199130874 761.1529401680957,500.27612199130874 761.1529401680957,524.8234852725587ZM835.3032087227832,475.8312367374025 835.3032087227832,451.28298844638687 810.755784406377,451.28298844638687 810.755784406377,475.8312367374025 835.3032087227832,475.8312367374025ZM810.9344343087207,500.37359513584 810.9344343087207,475.82629288974624 786.3871930977832,475.82629288974624 786.3871930977832,500.37359513584 810.9344343087207,500.37359513584ZM810.7598737618457,451.2881764346681 810.7598737618457,426.7399586612306 786.2131818673145,426.7399586612306 786.2131818673145,451.2881764346681 810.7598737618457,451.2881764346681ZM835.2162946602832,426.74453629794937 835.2162946602832,402.1976002627931 810.6689924141895,402.1976002627931 810.6689924141895,426.74453629794937 835.2162946602832,426.74453629794937ZM786.3040632149707,475.8312367374025 786.3040632149707,451.28298844638687 761.7571882149707,451.28298844638687 761.7571882149707,475.8312367374025 786.3040632149707,475.8312367374025ZM786.2169050118457,426.74453629794937 786.2169050118457,402.1976002627931 761.6697858712207,402.1976002627931 761.6697858712207,426.74453629794937 786.2169050118457,426.74453629794937ZM810.6729596993457,402.20168961826187 810.6729596993457,377.65457047763687 786.1259626290332,377.65457047763687 786.1259626290332,402.20168961826187 810.6729596993457,402.20168961826187Z" id="6PiBBygG9uaXjayWA" type="simple_path" name="undefined" stroke="#000000" stroke-width="4" stroke-opacity="1" fill="#55c029" fill-opacity="0.1906180950580665" stroke-linejoin="miter" stroke-linecap="butt" opacity="1"/><path d="M835.8702263564509,253.4576321952983 835.8702263564509,278.00537694627485 811.3228630752009,278.00537694627485 811.3228630752009,253.4576321952983 835.8702263564509,253.4576321952983ZM811.5014519423884,228.9149838798691 811.5014519423884,253.46237767869673 786.9537834853571,253.46237767869673 786.9537834853571,228.9149838798691 811.5014519423884,228.9149838798691ZM811.3271355361384,278.00086034471235 811.3271355361384,302.5479184501811 786.7798943252009,302.5479184501811 786.7798943252009,278.00086034471235 811.3271355361384,278.00086034471235ZM835.7832512587946,302.54370702439985 835.7832512587946,327.0907956474467 811.2355828017634,327.0907956474467 811.2355828017634,302.54370702439985 835.7832512587946,302.54370702439985ZM786.8715080947321,253.4576321952983 786.8715080947321,278.00537694627485 762.3240837783259,278.00537694627485 762.3240837783259,253.4576321952983 786.8715080947321,253.4576321952983ZM786.7845329970759,302.54370702439985 786.7845329970759,327.0907956474467 762.2370476455134,327.0907956474467 762.2370476455134,302.54370702439985 786.7845329970759,302.54370702439985ZM811.2400994033259,327.0860349052592 811.2400994033259,351.633825432603 786.6928581923884,351.633825432603 786.6928581923884,327.0860349052592 811.2400994033259,327.0860349052592ZM909.7541374892634,327.3413754814311 909.7541374892634,351.8895932548686 885.2067131728571,351.8895932548686 885.2067131728571,327.3413754814311 909.7541374892634,327.3413754814311ZM885.3853630752009,302.7990170829936 885.3853630752009,327.346227776353 860.8382439345759,327.346227776353 860.8382439345759,302.7990170829936 885.3853630752009,302.7990170829936ZM885.2115959853571,351.88440526658735 885.2115959853571,376.43262304002485 860.6641106337946,376.43262304002485 860.6641106337946,351.88440526658735 885.2115959853571,351.88440526658735ZM909.6670403212946,376.428014885728 909.6670403212946,400.97498143846235 885.1199822158259,400.97498143846235 885.1199822158259,376.428014885728 909.6670403212946,376.428014885728ZM860.7556633681696,327.3413754814311 860.7556633681696,351.8895932548686 836.2080559462946,351.8895932548686 836.2080559462946,327.3413754814311 860.7556633681696,327.3413754814311ZM860.6685662002009,376.428014885728 860.6685662002009,400.97498143846235 836.1213860244196,400.97498143846235 836.1213860244196,376.428014885728 860.6685662002009,376.428014885728ZM885.1243767470759,400.9708920829936 885.1243767470759,425.5180112236186 860.5768303603571,425.5180112236186 860.5768303603571,400.9708920829936 885.1243767470759,400.9708920829936ZM836.1213860244196,180.09578527147067 860.6685662002009,180.09578527147067 860.6685662002009,204.64339269334567 836.1213860244196,204.64339269334567 836.1213860244196,180.09578527147067ZM811.5781731337946,204.46472753221286 836.1258415908259,204.46472753221286 836.1258415908259,229.01189244920505 811.5781731337946,229.01189244920505 811.5781731337946,204.46472753221286ZM860.6641106337946,204.6384946220566 885.2115959853571,204.6384946220566 885.2115959853571,229.18608678514255 860.6641106337946,229.18608678514255 860.6641106337946,204.6384946220566ZM885.2067131728571,180.18295873338474 909.7541374892634,180.18295873338474 909.7541374892634,204.73018468553317 885.2067131728571,204.73018468553317 885.2067131728571,180.18295873338474ZM836.1213860244196,229.0945950859238 860.6685662002009,229.0945950859238 860.6685662002009,253.6420804374858 836.1213860244196,253.6420804374858 836.1213860244196,229.0945950859238ZM885.2067131728571,229.18169225389255 909.7541374892634,229.18169225389255 909.7541374892634,253.7287045829936 885.2067131728571,253.7287045829936 885.2067131728571,229.18169225389255ZM909.7498039931696,204.7256986015488 934.2974724502009,204.7256986015488 934.2974724502009,229.27336705858005 909.7498039931696,229.27336705858005 909.7498039931696,204.7256986015488ZM983.3669914931697,180.35669530565036 1007.9147820205135,180.35669530565036 1007.9147820205135,204.9042874687363 983.3669914931697,204.9042874687363 983.3669914931697,180.35669530565036ZM958.8247551650446,204.7256986015488 983.3717522353572,204.7256986015488 983.3717522353572,229.27332128221286 958.8247551650446,229.27332128221286 958.8247551650446,204.7256986015488ZM1007.910021278326,204.89978612596286 1032.457140418951,204.89978612596286 1032.457140418951,229.44692052537692 1007.910021278326,229.44692052537692 1007.910021278326,204.89978612596286ZM1032.453478309576,180.44389928514255 1057.0002922744195,180.44389928514255 1057.0002922744195,204.9915219658066 1032.453478309576,204.9915219658066 1032.453478309576,180.44389928514255ZM983.3669914931697,229.35539830858005 1007.9147820205135,229.35539830858005 1007.9147820205135,253.90288366014204 983.3669914931697,253.90288366014204 983.3669914931697,229.35539830858005ZM1032.453478309576,229.44246495897067 1057.0002922744195,229.44246495897067 1057.0002922744195,253.9901791923686 1032.453478309576,253.9901791923686 1032.453478309576,229.44246495897067ZM1056.996019813482,204.98666967088474 1081.5434441298885,204.98666967088474 1081.5434441298885,229.53398717576755 1056.996019813482,229.53398717576755 1056.996019813482,204.98666967088474ZM1130.623461219732,254.24109471971235 1130.623461219732,278.788610588853 1106.075853797857,278.788610588853 1106.075853797857,254.24109471971235 1130.623461219732,254.24109471971235ZM1106.2551140517633,229.69809545213474 1106.2551140517633,254.24541295701704 1081.7069573134822,254.24541295701704 1081.7069573134822,229.69809545213474 1106.2551140517633,229.69809545213474ZM1106.0811638564508,278.7836667411967 1106.0811638564508,303.3309689872905 1081.5336174697322,303.3309689872905 1081.5336174697322,278.7836667411967 1106.0811638564508,278.7836667411967ZM1130.536547157232,303.3270627372905 1130.536547157232,327.8738767021342 1105.9886345595758,327.8738767021342 1105.9886345595758,303.3270627372905 1130.536547157232,303.3270627372905ZM1081.6247429580135,254.24109471971235 1081.6247429580135,278.788610588853 1057.0779289931695,278.788610588853 1057.0779289931695,254.24109471971235 1081.6247429580135,254.24109471971235ZM1081.5378899306697,303.3270627372905 1081.5378899306697,327.8738767021342 1056.9908318252008,327.8738767021342 1056.9908318252008,303.3270627372905 1081.5378899306697,303.3270627372905ZM1105.9933953017633,327.8696957939311 1105.9933953017633,352.4173337333842 1081.4463371962947,352.4173337333842 1081.4463371962947,327.8696957939311 1105.9933953017633,327.8696957939311ZM909.4830193252009,253.71904576951704 934.0303826064509,253.71904576951704 934.0303826064509,278.2661801689311 909.4830193252009,278.2661801689311 909.4830193252009,253.71904576951704ZM884.9403557509821,278.0878659599467 909.4879631728571,278.0878659599467 909.4879631728571,302.6348630302592 884.9403557509821,302.6348630302592 884.9403557509821,278.0878659599467ZM934.0264153212946,278.2619382255717 958.5731072158259,278.2619382255717 958.5731072158259,302.8089963310405 934.0264153212946,302.8089963310405 934.0264153212946,278.2619382255717ZM958.5692009658259,253.80606664354048 983.116564247076,253.80606664354048 983.116564247076,278.353063713853 958.5692009658259,278.353063713853 958.5692009658259,253.80606664354048ZM909.4830193252009,302.7171994560405 934.0303826064509,302.7171994560405 934.0303826064509,327.26526464158735 909.4830193252009,327.26526464158735 909.4830193252009,302.7171994560405ZM958.5692009658259,302.80444921189985 983.116564247076,302.80444921189985 983.116564247076,327.352087151353 958.5692009658259,327.352087151353 958.5692009658259,302.80444921189985ZM983.111437293951,278.34912694627485 1007.6596550673885,278.34912694627485 1007.6596550673885,302.8964597099467 983.111437293951,302.8964597099467 983.111437293951,278.34912694627485ZM1057.2617058486383,327.3413754814311 1057.2617058486383,351.8895932548686 1032.7142815322322,351.8895932548686 1032.7142815322322,327.3413754814311 1057.2617058486383,327.3413754814311ZM1032.892931434576,302.7990170829936 1032.892931434576,327.346227776353 1008.3456902236385,327.346227776353 1008.3456902236385,302.7990170829936 1032.892931434576,302.7990170829936ZM1032.718370887701,351.88440526658735 1032.718370887701,376.43262304002485 1008.1716789931697,376.43262304002485 1008.1716789931697,351.88440526658735 1032.718370887701,351.88440526658735ZM1057.1747917861383,376.428014885728 1057.1747917861383,400.97498143846235 1032.6274895400447,400.97498143846235 1032.6274895400447,376.428014885728 1057.1747917861383,376.428014885728ZM1008.262560340826,327.3413754814311 1008.262560340826,351.8895932548686 983.715685340826,351.8895932548686 983.715685340826,327.3413754814311 1008.262560340826,327.3413754814311ZM1008.175402137701,376.428014885728 1008.175402137701,400.97498143846235 983.628282997076,400.97498143846235 983.628282997076,376.428014885728 1008.175402137701,376.428014885728ZM1032.631456825201,400.9708920829936 1032.631456825201,425.5180112236186 1008.0844597548885,425.5180112236186 1008.0844597548885,400.9708920829936 1032.631456825201,400.9708920829936Z" id="8yLwyqZvuFJ5hNzHs" type="simple_path" name="undefined" stroke="#000000" stroke-width="4" stroke-opacity="1" fill="#55c029" fill-opacity="0.1906180950580665" stroke-linejoin="miter" stroke-linecap="butt" opacity="1"/><path d="M243.01185618117606,400.8248949454062 267.5595856733637,400.8248949454062 267.5595856733637,376.27750114657806 243.01185618117606,376.27750114657806 243.01185618117606,400.8248949454062ZM218.46919260695742,376.45609001376556 243.01661692336356,376.45609001376556 243.01661692336356,351.9084215567343 218.46919260695742,351.9084215567343 218.46919260695742,376.45609001376556ZM267.5550690718012,376.28177360751556 292.10213862136175,376.28177360751556 292.10213862136175,351.73453239657806 267.5550690718012,351.73453239657806 267.5550690718012,376.28177360751556ZM292.0979271955805,400.73791984774994 316.64501581862737,400.73791984774994 316.64501581862737,376.19022087314056 292.0979271955805,376.19022087314056 292.0979271955805,400.73791984774994ZM243.01185618117606,351.8261461661093 267.5595856733637,351.8261461661093 267.5595856733637,327.27872184970306 243.01185618117606,327.27872184970306 243.01185618117606,351.8261461661093ZM292.0979271955805,351.73917106845306 316.64501581862737,351.73917106845306 316.64501581862737,327.19168571689056 292.0979271955805,327.19168571689056 292.0979271955805,351.73917106845306ZM316.64025507643987,376.19473747470306 341.1880389280634,376.19473747470306 341.1880389280634,351.64749626376556 316.64025507643987,351.64749626376556 316.64025507643987,376.19473747470306ZM316.8955651350336,474.7088060782187 341.4437762327509,474.7088060782187 341.4437762327509,450.16138176181244 316.8955651350336,450.16138176181244 316.8955651350336,474.7088060782187ZM292.3532067365961,450.3400316641562 316.9004479475336,450.3400316641562 316.9004479475336,425.7929125235312 292.3532067365961,425.7929125235312 292.3532067365961,450.3400316641562ZM341.43858824446966,450.16626457431244 365.98680506423284,450.16626457431244 365.98680506423284,425.61877922274994 341.43858824446966,425.61877922274994 341.43858824446966,450.16626457431244ZM365.9822274275141,474.62170891024994 390.52916346267034,474.62170891024994 390.52916346267034,450.0746508047812 365.9822274275141,450.0746508047812 365.9822274275141,474.62170891024994ZM316.8955651350336,425.71033195712494 341.4437762327509,425.71033195712494 341.4437762327509,401.16272453524994 316.8955651350336,401.16272453524994 316.8955651350336,425.71033195712494ZM365.9822274275141,425.6232347891562 390.52916346267034,425.6232347891562 390.52916346267034,401.07605461337494 365.9822274275141,401.07605461337494 365.9822274275141,425.6232347891562ZM390.5250741072016,450.0790453360312 415.07219706252386,450.0790453360312 415.07219706252386,425.53149894931244 390.5250741072016,425.53149894931244 390.5250741072016,450.0790453360312ZM169.64997111037607,401.07605461337494 169.64997111037607,425.6232347891562 194.19757853225028,425.6232347891562 194.19757853225028,401.07605461337494 169.64997111037607,401.07605461337494ZM194.01886759475028,376.5328112051718 194.01886759475028,401.0805101797812 218.56611643508242,401.0805101797812 218.56611643508242,376.5328112051718 194.01886759475028,376.5328112051718ZM194.19269571975028,425.61877922274994 194.19269571975028,450.16626457431244 218.74031077101992,450.16626457431244 218.74031077101992,425.61877922274994 194.19269571975028,425.61877922274994ZM169.73712931350107,450.16138176181244 169.73712931350107,474.7088060782187 194.28437052443778,474.7088060782187 194.28437052443778,450.16138176181244 169.73712931350107,450.16138176181244ZM218.64881907180117,401.07605461337494 218.64881907180117,425.6232347891562 243.19630442336356,425.6232347891562 243.19630442336356,401.07605461337494 218.64881907180117,401.07605461337494ZM218.73591623976992,450.16138176181244 218.73591623976992,474.7088060782187 243.2829133100823,474.7088060782187 243.2829133100823,450.16138176181244 218.73591623976992,450.16138176181244ZM194.27985392287528,474.70447258212494 194.27985392287528,499.2521410391562 218.82759104445742,499.2521410391562 218.82759104445742,474.70447258212494 194.27985392287528,474.70447258212494ZM169.91083536818857,548.3216600821249 169.91083536818857,572.8694506094687 194.45844279006278,572.8694506094687 194.45844279006278,548.3216600821249 169.91083536818857,548.3216600821249ZM194.27985392287528,523.7794237539999 194.27985392287528,548.3264208243124 218.82753000930117,548.3264208243124 218.82753000930117,523.7794237539999 194.27985392287528,523.7794237539999ZM194.45392618850028,572.8646898672812 194.45392618850028,597.4118090079062 219.00117502883242,597.4118090079062 219.00117502883242,572.8646898672812 194.45392618850028,572.8646898672812ZM169.99811564162607,597.4081468985312 169.99811564162607,621.9549608633749 194.54572306350028,621.9549608633749 194.54572306350028,597.4081468985312 169.99811564162607,597.4081468985312ZM218.90962229445742,548.3216600821249 218.90962229445742,572.8694506094687 243.4571076460198,572.8694506094687 243.4571076460198,548.3216600821249 218.90962229445742,548.3216600821249ZM218.99671946242617,597.4081468985312 218.99671946242617,621.9549608633749 243.5443879194573,621.9549608633749 243.5443879194573,597.4081468985312 218.99671946242617,597.4081468985312ZM194.54084025100028,621.9506884024374 194.54084025100028,646.4981127188437 219.08821116164492,646.4981127188437 219.08821116164492,621.9506884024374 194.54084025100028,621.9506884024374ZM243.79530344680106,695.5781298086874 268.34284983351995,695.5781298086874 268.34284983351995,671.0305223868124 243.79530344680106,671.0305223868124 243.79530344680106,695.5781298086874ZM219.25233469680117,671.2097826407187 243.7996369428948,671.2097826407187 243.7996369428948,646.6616259024374 219.25233469680117,646.6616259024374 219.25233469680117,671.2097826407187ZM268.3379059858637,671.0358324454062 292.88521967604925,671.0358324454062 292.88521967604925,646.4882860586874 268.3379059858637,646.4882860586874 268.3379059858637,671.0358324454062ZM292.8812829084711,695.4912157461874 317.42809687331487,695.4912157461874 317.42809687331487,670.9433031485312 292.8812829084711,670.9433031485312 292.8812829084711,695.4912157461874ZM243.79530344680106,646.5794115469687 268.34284983351995,646.5794115469687 268.34284983351995,622.0325975821249 243.79530344680106,622.0325975821249 243.79530344680106,646.5794115469687ZM292.8812829084711,646.4925585196249 317.42809687331487,646.4925585196249 317.42809687331487,621.9455004141562 292.8812829084711,621.9455004141562 292.8812829084711,646.4925585196249ZM317.4238854475336,670.9480638907187 341.97154722884466,670.9480638907187 341.97154722884466,646.4010057852499 317.4238854475336,646.4010057852499 317.4238854475336,670.9480638907187ZM243.2732697553948,474.4376879141562 243.2732697553948,498.9850511954062 267.82038889601995,498.9850511954062 267.82038889601995,474.4376879141562 243.2732697553948,474.4376879141562ZM267.6421052046137,449.89502433993744 267.6421052046137,474.44263176181244 292.18908320143987,474.44263176181244 292.18908320143987,449.89502433993744 267.6421052046137,449.89502433993744ZM267.8161774702387,498.98108391024994 267.8161774702387,523.5277758047812 292.3632165022211,523.5277758047812 292.3632165022211,498.98108391024994 267.8161774702387,498.98108391024994ZM243.3603058882073,523.5238695547812 243.3603058882073,548.0712328360312 267.90730295851995,548.0712328360312 267.90730295851995,523.5238695547812 243.3603058882073,523.5238695547812ZM292.2714196272211,474.4376879141562 292.2714196272211,498.9850511954062 316.81945429518987,498.9850511954062 316.81945429518987,474.4376879141562 292.2714196272211,474.4376879141562ZM292.35863886550237,523.5238695547812 292.35863886550237,548.0712328360312 316.9063073225336,548.0712328360312 316.9063073225336,523.5238695547812 292.35863886550237,523.5238695547812ZM267.9033356733637,548.0661058829062 267.9033356733637,572.6143236563437 292.45067988112737,572.6143236563437 292.45067988112737,548.0661058829062 267.9033356733637,548.0661058829062ZM316.8955651350336,622.2163744375937 341.4437762327509,622.2163744375937 341.4437762327509,597.6689501211874 316.8955651350336,597.6689501211874 316.8955651350336,622.2163744375937ZM292.3532067365961,597.8476000235312 316.9004479475336,597.8476000235312 316.9004479475336,573.3003588125937 292.3532067365961,573.3003588125937 292.3532067365961,597.8476000235312ZM341.43858824446966,597.6730394766562 365.98680506423284,597.6730394766562 365.98680506423284,573.1263475821249 341.43858824446966,573.1263475821249 341.43858824446966,597.6730394766562ZM365.9822274275141,622.1294603750937 390.52916346267034,622.1294603750937 390.52916346267034,597.5821581289999 365.9822274275141,597.5821581289999 365.9822274275141,622.1294603750937ZM316.8955651350336,573.2172289297812 341.4437762327509,573.2172289297812 341.4437762327509,548.6703539297812 316.8955651350336,548.6703539297812 316.8955651350336,573.2172289297812ZM365.9822274275141,573.1300707266562 390.52916346267034,573.1300707266562 390.52916346267034,548.5829515860312 365.9822274275141,548.5829515860312 365.9822274275141,573.1300707266562ZM390.5250741072016,597.5861254141562 415.07219706252386,597.5861254141562 415.07219706252386,573.0391283438437 390.5250741072016,573.0391283438437 390.5250741072016,597.5861254141562Z" id="WDRd5y56dtAarvxcR" type="simple_path" name="undefined" stroke="#000000" stroke-width="4" stroke-opacity="1" fill="#55c029" fill-opacity="0.1906180950580665" stroke-linejoin="miter" stroke-linecap="butt" opacity="1"/><path d="M539.2691426376095,622.7833803193007 514.721413145422,622.7833803193007 514.721413145422,598.2360170380507 539.2691426376095,598.2360170380507 539.2691426376095,622.7833803193007ZM563.8118062118283,598.4146059052382 539.264381895422,598.4146059052382 539.264381895422,573.866937448207 563.8118062118283,573.866937448207 563.8118062118283,598.4146059052382ZM514.7259297469845,598.2402894989882 490.1788716415158,598.2402894989882 490.1788716415158,573.6930482880507 514.7259297469845,573.6930482880507 514.7259297469845,598.2402894989882ZM490.18308306729705,622.6964052216445 465.6359791854611,622.6964052216445 465.6359791854611,598.1487367646132 490.18308306729705,598.1487367646132 490.18308306729705,622.6964052216445ZM539.2691426376095,573.784662057582 514.721413145422,573.784662057582 514.721413145422,549.2372377411757 539.2691426376095,549.2372377411757 539.2691426376095,573.784662057582ZM490.18308306729705,573.6976869599257 465.6359791854611,573.6976869599257 465.6359791854611,549.1502016083632 490.18308306729705,549.1502016083632 490.18308306729705,573.6976869599257ZM465.6407399276486,598.1532533661757 441.09294940030486,598.1532533661757 441.09294940030486,573.6060121552382 465.6407399276486,573.6060121552382 465.6407399276486,598.1532533661757ZM465.38542986905486,696.6672914521132 440.83721209561736,696.6672914521132 440.83721209561736,672.119867135707 465.38542986905486,672.119867135707 465.38542986905486,696.6672914521132ZM489.9277730087033,672.2985170380507 465.38054705655486,672.2985170380507 465.38054705655486,647.7513978974257 489.9277730087033,647.7513978974257 489.9277730087033,672.2985170380507ZM440.8424000838986,672.124749948207 416.2941823104611,672.124749948207 416.2941823104611,647.5772645966445 440.8424000838986,647.5772645966445 440.8424000838986,672.124749948207ZM416.29875994717986,696.5801942841445 391.7518239120236,696.5801942841445 391.7518239120236,672.0331361786757 416.29875994717986,672.0331361786757 416.29875994717986,696.5801942841445ZM465.38542986905486,647.6688173310195 440.83721209561736,647.6688173310195 440.83721209561736,623.1212099091445 465.38542986905486,623.1212099091445 465.38542986905486,647.6688173310195ZM416.29875994717986,647.5817201630507 391.7518239120236,647.5817201630507 391.7518239120236,623.0345399872695 416.29875994717986,623.0345399872695 416.29875994717986,647.5817201630507ZM391.75591326749236,672.0375307099257 367.20879412686736,672.0375307099257 367.20879412686736,647.489984323207 391.75591326749236,647.489984323207 391.75591326749236,672.0375307099257ZM612.6310200790158,623.0345399872695 612.6310200790158,647.5817201630507 588.0834126571408,647.5817201630507 588.0834126571408,623.0345399872695 612.6310200790158,623.0345399872695ZM588.2621235946408,598.4913270966445 588.2621235946408,623.0389955536757 563.7148823837033,623.0389955536757 563.7148823837033,598.4913270966445 588.2621235946408,598.4913270966445ZM588.0882954696408,647.5772645966445 588.0882954696408,672.124749948207 563.5406880477658,672.124749948207 563.5406880477658,647.5772645966445 588.0882954696408,647.5772645966445ZM612.5438618758908,672.119867135707 612.5438618758908,696.6672914521132 587.9966206649533,696.6672914521132 587.9966206649533,672.119867135707 612.5438618758908,672.119867135707ZM563.6321797469845,623.0345399872695 563.6321797469845,647.5817201630507 539.084694395422,647.5817201630507 539.084694395422,623.0345399872695 563.6321797469845,623.0345399872695ZM563.5450825790158,672.119867135707 563.5450825790158,696.6672914521132 538.9980855087033,696.6672914521132 538.9980855087033,672.119867135707 563.5450825790158,672.119867135707ZM588.0011372665158,696.6629579560195 588.0011372665158,721.2106264130507 563.4534077743283,721.2106264130507 563.4534077743283,696.6629579560195 588.0011372665158,696.6629579560195ZM612.3701558212033,770.2801454560195 612.3701558212033,794.8279359833632 587.8225483993283,794.8279359833632 587.8225483993283,770.2801454560195 612.3701558212033,770.2801454560195ZM588.0011372665158,745.7379091278945 588.0011372665158,770.284906198207 563.4534688094845,770.284906198207 563.4534688094845,745.7379091278945 588.0011372665158,745.7379091278945ZM587.8270650008908,794.8231752411757 587.8270650008908,819.3702943818007 563.2798237899533,819.3702943818007 563.2798237899533,794.8231752411757 587.8270650008908,794.8231752411757ZM612.2828755477658,819.3666322724257 612.2828755477658,843.9134462372695 587.7352681258908,843.9134462372695 587.7352681258908,819.3666322724257 612.2828755477658,819.3666322724257ZM563.3713765243283,770.2801454560195 563.3713765243283,794.8279359833632 538.8238911727658,794.8279359833632 538.8238911727658,770.2801454560195 563.3713765243283,770.2801454560195ZM563.2842793563595,819.3666322724257 563.2842793563595,843.9134462372695 538.7366108993283,843.9134462372695 538.7366108993283,819.3666322724257 563.2842793563595,819.3666322724257ZM587.7401509383908,843.909173776332 587.7401509383908,868.4565980927382 563.1927876571408,868.4565980927382 563.1927876571408,843.909173776332 587.7401509383908,843.909173776332ZM538.4856953719845,917.536615182582 513.9381489852658,917.536615182582 513.9381489852658,892.989007760707 538.4856953719845,892.989007760707 538.4856953719845,917.536615182582ZM563.0286641219845,893.1682680146132 538.4813618758908,893.1682680146132 538.4813618758908,868.620111276332 563.0286641219845,868.620111276332 563.0286641219845,893.1682680146132ZM513.943092832922,892.9943178193007 489.3957905868283,892.9943178193007 489.3957905868283,868.446771432582 513.943092832922,868.446771432582 513.943092832922,892.9943178193007ZM489.3996968368283,917.449701120082 464.8528981307736,917.449701120082 464.8528981307736,892.9017885224257 489.3996968368283,892.9017885224257 489.3996968368283,917.449701120082ZM538.4856953719845,868.5378969208632 513.9381489852658,868.5378969208632 513.9381489852658,843.9910829560195 538.4856953719845,843.9910829560195 538.4856953719845,868.5378969208632ZM489.3996968368283,868.4510438935195 464.8528981307736,868.4510438935195 464.8528981307736,843.9039857880507 489.3996968368283,843.9039857880507 489.3996968368283,868.4510438935195ZM464.85710955655486,892.9065492646132 440.3094410995236,892.9065492646132 440.3094410995236,868.3594911591445 464.85710955655486,868.3594911591445 464.85710955655486,892.9065492646132ZM539.0077290633908,696.3961732880507 539.0077290633908,720.9435365693007 514.4606099227658,720.9435365693007 514.4606099227658,696.3961732880507 539.0077290633908,696.3961732880507ZM514.638893614172,671.853509713832 514.638893614172,696.401117135707 490.09189654385955,696.401117135707 490.09189654385955,671.853509713832 514.638893614172,671.853509713832ZM514.464821348547,720.9395692841445 514.464821348547,745.4862611786757 489.9177632430783,745.4862611786757 489.9177632430783,720.9395692841445 514.464821348547,720.9395692841445ZM538.9206929305783,745.4823549286757 538.9206929305783,770.0297182099257 514.3736958602658,770.0297182099257 514.3736958602658,745.4823549286757 538.9206929305783,745.4823549286757ZM490.0095601180783,696.3961732880507 490.0095601180783,720.9435365693007 465.4615407088986,720.9435365693007 465.4615407088986,696.3961732880507 490.0095601180783,696.3961732880507ZM489.92234087979705,745.4823549286757 489.92234087979705,770.0297182099257 465.37468768155486,770.0297182099257 465.37468768155486,745.4823549286757 489.92234087979705,745.4823549286757ZM514.377663145422,770.0245912568007 514.377663145422,794.5728090302382 489.83029986417205,794.5728090302382 489.83029986417205,770.0245912568007 514.377663145422,770.0245912568007ZM465.38542986905486,844.1748598114882 440.83721209561736,844.1748598114882 440.83721209561736,819.627435495082 465.38542986905486,819.627435495082 465.38542986905486,844.1748598114882ZM489.9277730087033,819.8060853974257 465.38054705655486,819.8060853974257 465.38054705655486,795.2588441864882 489.9277730087033,795.2588441864882 489.9277730087033,819.8060853974257ZM440.8424000838986,819.6315248505507 416.2941823104611,819.6315248505507 416.2941823104611,795.0848329560195 440.8424000838986,795.0848329560195 440.8424000838986,819.6315248505507ZM416.29875994717986,844.0879457489882 391.7518239120236,844.0879457489882 391.7518239120236,819.5406435028945 416.29875994717986,819.5406435028945 416.29875994717986,844.0879457489882ZM465.38542986905486,795.1757143036757 440.83721209561736,795.1757143036757 440.83721209561736,770.6288393036757 465.38542986905486,770.6288393036757 465.38542986905486,795.1757143036757ZM416.29875994717986,795.0885561005507 391.7518239120236,795.0885561005507 391.7518239120236,770.5414369599257 416.29875994717986,770.5414369599257 416.29875994717986,795.0885561005507ZM391.75591326749236,819.5446107880507 367.20879412686736,819.5446107880507 367.20879412686736,794.9976137177382 391.75591326749236,794.9976137177382 391.75591326749236,819.5446107880507Z" id="EqifAF8gD5hqtKbzy" type="simple_path" name="undefined" stroke="#000000" stroke-width="4" stroke-opacity="1" fill="#55c029" fill-opacity="0.1906180950580665" stroke-linejoin="miter" stroke-linecap="butt" opacity="1"/><path d="M909.6744862350529,622.7833711710673 934.2222157272404,622.7833711710673 934.2222157272404,598.2360078898173 909.6744862350529,598.2360078898173 909.6744862350529,622.7833711710673ZM885.1317616256779,598.4145967570048 909.6792469772404,598.4145967570048 909.6792469772404,573.8669282999736 885.1317616256779,573.8669282999736 885.1317616256779,598.4145967570048ZM934.2176991256779,598.2402803507548 958.7646961959904,598.2402803507548 958.7646961959904,573.6930391398173 934.2176991256779,573.6930391398173 934.2176991256779,598.2402803507548ZM958.7605458053654,622.696396073411 983.3076649459904,622.696396073411 983.3076649459904,598.1487276163798 958.7605458053654,598.1487276163798 958.7605458053654,622.696396073411ZM909.6744862350529,573.7846529093486 934.2222157272404,573.7846529093486 934.2222157272404,549.2372285929423 909.6744862350529,549.2372285929423 909.6744862350529,573.7846529093486ZM958.7605458053654,573.6976778116923 983.3076649459904,573.6976778116923 983.3076649459904,549.1501924601298 958.7605458053654,549.1501924601298 958.7605458053654,573.6976778116923ZM983.3029042038029,598.1532442179423 1007.8506336959904,598.1532442179423 1007.8506336959904,573.6060030070048 983.3029042038029,573.6060030070048 983.3029042038029,598.1532442179423ZM983.5581532272404,696.6672823038798 1008.1063710006779,696.6672823038798 1008.1063710006779,672.1198579874736 983.5581532272404,672.1198579874736 983.5581532272404,696.6672823038798ZM959.0157948288029,672.2985078898173 983.5630360397404,672.2985078898173 983.5630360397404,647.7513887491923 959.0157948288029,647.7513887491923 959.0157948288029,672.2985078898173ZM1008.1012440475529,672.1247407999736 1032.6494618209904,672.1247407999736 1032.6494618209904,647.577255448411 1008.1012440475529,647.577255448411 1008.1012440475529,672.1247407999736ZM1032.6448231491154,696.580185135911 1057.1918202194279,696.580185135911 1057.1918202194279,672.0331270304423 1032.6448231491154,672.0331270304423 1032.6448231491154,696.580185135911ZM983.5581532272404,647.668808182786 1008.1063710006779,647.668808182786 1008.1063710006779,623.121200760911 983.5581532272404,623.121200760911 983.5581532272404,647.668808182786ZM1032.6448231491154,647.5817110148173 1057.1918202194279,647.5817110148173 1057.1918202194279,623.034530839036 1032.6448231491154,623.034530839036 1032.6448231491154,647.5817110148173ZM1057.1876698288029,672.0375215616923 1081.7347889694279,672.0375215616923 1081.7347889694279,647.4899751749736 1057.1876698288029,647.4899751749736 1057.1876698288029,672.0375215616923ZM836.3125477584904,623.034530839036 836.3125477584904,647.5817110148173 860.8601551803654,647.5817110148173 860.8601551803654,623.034530839036 836.3125477584904,623.034530839036ZM860.6814442428654,598.491317948411 860.6814442428654,623.0389864054423 885.2286854538029,623.0389864054423 885.2286854538029,598.491317948411 860.6814442428654,598.491317948411ZM860.8552723678654,647.577255448411 860.8552723678654,672.1247407999736 885.4028797897404,672.1247407999736 885.4028797897404,647.577255448411 860.8552723678654,647.577255448411ZM836.3997059616154,672.1198579874736 836.3997059616154,696.6672823038798 860.9469471725529,696.6672823038798 860.9469471725529,672.1198579874736 836.3997059616154,672.1198579874736ZM885.3114491256779,623.034530839036 885.3114491256779,647.5817110148173 909.8589344772404,647.5817110148173 909.8589344772404,623.034530839036 885.3114491256779,623.034530839036ZM885.3984852584904,672.1198579874736 885.3984852584904,696.6672823038798 909.9454823288029,696.6672823038798 909.9454823288029,672.1198579874736 885.3984852584904,672.1198579874736ZM860.9424305709904,696.662948807786 860.9424305709904,721.2106172648173 885.4901600631779,721.2106172648173 885.4901600631779,696.662948807786 860.9424305709904,696.662948807786ZM836.5734120163029,770.280136307786 836.5734120163029,794.8279268351298 861.1210194381779,794.8279268351298 861.1210194381779,770.280136307786 836.5734120163029,770.280136307786ZM860.9424305709904,745.737899979661 860.9424305709904,770.2848970499736 885.4901600631779,770.2848970499736 885.4901600631779,745.737899979661 860.9424305709904,745.737899979661ZM861.1165028366154,794.8231660929423 861.1165028366154,819.3702852335673 885.6637440475529,819.3702852335673 885.6637440475529,794.8231660929423 861.1165028366154,794.8231660929423ZM836.6606922897404,819.3666231241923 836.6606922897404,843.913437089036 861.2082997116154,843.913437089036 861.2082997116154,819.3666231241923 836.6606922897404,819.3666231241923ZM885.5721913131779,770.280136307786 885.5721913131779,794.8279268351298 910.1196766647404,794.8279268351298 910.1196766647404,770.280136307786 885.5721913131779,770.280136307786ZM885.6593495163029,819.3666231241923 885.6593495163029,843.913437089036 910.2069569381779,843.913437089036 910.2069569381779,819.3666231241923 885.6593495163029,819.3666231241923ZM861.2034168991154,843.9091646280986 861.2034168991154,868.4565889445048 885.7507801803654,868.4565889445048 885.7507801803654,843.9091646280986 861.2034168991154,843.9091646280986ZM910.4579335006779,917.5366060343486 935.0054188522404,917.5366060343486 935.0054188522404,892.9889986124736 910.4579335006779,892.9889986124736 910.4579335006779,917.5366060343486ZM885.9149647506779,893.1682588663798 910.4622059616154,893.1682588663798 910.4622059616154,868.6201021280986 885.9149647506779,868.6201021280986 885.9149647506779,893.1682588663798ZM935.0005360397404,892.9943086710673 959.5477772506779,892.9943086710673 959.5477772506779,868.4467622843486 935.0005360397404,868.4467622843486 935.0005360397404,892.9943086710673ZM959.5438710006779,917.4496919718486 984.0907460006779,917.4496919718486 984.0907460006779,892.9017793741923 959.5438710006779,892.9017793741923 959.5438710006779,917.4496919718486ZM910.4579335006779,868.5378877726298 935.0054188522404,868.5378877726298 935.0054188522404,843.991073807786 910.4579335006779,843.991073807786 910.4579335006779,868.5378877726298ZM959.5438710006779,868.451034745286 984.0907460006779,868.451034745286 984.0907460006779,843.9039766398173 959.5438710006779,843.9039766398173 959.5438710006779,868.451034745286ZM984.0864735397404,892.9065401163798 1008.6342030319279,892.9065401163798 1008.6342030319279,868.359482010911 984.0864735397404,868.359482010911 984.0864735397404,892.9065401163798ZM909.9358387741154,696.3961641398173 909.9358387741154,720.9435274210673 934.4829579147404,720.9435274210673 934.4829579147404,696.3961641398173 909.9358387741154,696.3961641398173ZM934.3047352584904,671.8535005655986 934.3047352584904,696.4011079874736 958.8517323288029,696.4011079874736 958.8517323288029,671.8535005655986 934.3047352584904,671.8535005655986ZM934.4788075241154,720.939560135911 934.4788075241154,745.4862520304423 959.0258045944279,745.4862520304423 959.0258045944279,720.939560135911 934.4788075241154,720.939560135911ZM910.0228749069279,745.4823457804423 910.0228749069279,770.0297090616923 934.5698719772404,770.0297090616923 934.5698719772404,745.4823457804423 910.0228749069279,745.4823457804423ZM958.9340077194279,696.3961641398173 958.9340077194279,720.9435274210673 983.4821034225529,720.9435274210673 983.4821034225529,696.3961641398173 958.9340077194279,696.3961641398173ZM959.0212879928654,745.4823457804423 959.0212879928654,770.0297090616923 983.5688954147404,770.0297090616923 983.5688954147404,745.4823457804423 959.0212879928654,745.4823457804423ZM934.5659657272404,770.0245821085673 934.5659657272404,794.5727998820048 959.1133290084904,794.5727998820048 959.1133290084904,770.0245821085673 934.5659657272404,770.0245821085673ZM983.5581532272404,844.1748506632548 1008.1063710006779,844.1748506632548 1008.1063710006779,819.6274263468486 983.5581532272404,819.6274263468486 983.5581532272404,844.1748506632548ZM959.0157948288029,819.8060762491923 983.5630360397404,819.8060762491923 983.5630360397404,795.2588350382548 959.0157948288029,795.2588350382548 959.0157948288029,819.8060762491923ZM1008.1012440475529,819.6315157023173 1032.6494618209904,819.6315157023173 1032.6494618209904,795.084823807786 1008.1012440475529,795.084823807786 1008.1012440475529,819.6315157023173ZM1032.6448231491154,844.0879366007548 1057.1918202194279,844.0879366007548 1057.1918202194279,819.540634354661 1032.6448231491154,819.540634354661 1032.6448231491154,844.0879366007548ZM983.5581532272404,795.1757051554423 1008.1063710006779,795.1757051554423 1008.1063710006779,770.6288301554423 983.5581532272404,770.6288301554423 983.5581532272404,795.1757051554423ZM1032.6448231491154,795.0885469523173 1057.1918202194279,795.0885469523173 1057.1918202194279,770.5414278116923 1032.6448231491154,770.5414278116923 1032.6448231491154,795.0885469523173ZM1057.1876698288029,819.5446016398173 1081.7347889694279,819.5446016398173 1081.7347889694279,794.9976045695048 1057.1876698288029,794.9976045695048 1057.1876698288029,819.5446016398173Z" id="kGnuu2Doc5Fwww88h" type="simple_path" name="undefined" stroke="#000000" stroke-width="4" stroke-opacity="1" fill="#55c029" fill-opacity="0.1906180950580665" stroke-linejoin="miter" stroke-linecap="butt" opacity="1"/><g id="G6NcYKf8esihvNAHJ" type="simpleGroup"></g></g></svg>